<?xml version="1.0" encoding="UTF-8" standalone="no"?>
<svg
   xmlns:dc="http://purl.org/dc/elements/1.1/"
   xmlns:cc="http://creativecommons.org/ns#"
   xmlns:rdf="http://www.w3.org/1999/02/22-rdf-syntax-ns#"
   xmlns:svg="http://www.w3.org/2000/svg"
   xmlns="http://www.w3.org/2000/svg"
   xmlns:sodipodi="http://sodipodi.sourceforge.net/DTD/sodipodi-0.dtd"
   xmlns:inkscape="http://www.inkscape.org/namespaces/inkscape"
   version="1.1"
   id="svg2"
   xml:space="preserve"
   width="3863.1599"
   height="2987.7334"
   viewBox="0 0 3863.1599 2987.7334"
   sodipodi:docname="sizemini_92.eps"><metadata
     id="metadata8"><rdf:RDF><cc:Work
         rdf:about=""><dc:format>image/svg+xml</dc:format><dc:type
           rdf:resource="http://purl.org/dc/dcmitype/StillImage" /></cc:Work></rdf:RDF></metadata><defs
     id="defs6"><clipPath
       clipPathUnits="userSpaceOnUse"
       id="clipPath102"><path
         d="m 9753.89,7661.7 c 0.05,0 0.1,0 0.15,0 h -0.15 m 1.9,0.4 c 0.11,0 0.29,0.1 0.4,0.1 -0.12,0 -0.28,-0.1 -0.4,-0.1 m 2.21,0.5 c 0.2,0 0.4,0.1 0.6,0.1 -0.18,0 -0.41,-0.1 -0.6,-0.1 m 1.79,0.4 c 0.32,0.1 0.59,0.1 0.91,0.2 -0.31,-0.1 -0.6,-0.1 -0.91,-0.2 m 1.69,0.4 c 0.75,0.1 1.46,0.3 2.21,0.4 -0.75,-0.1 -1.46,-0.3 -2.21,-0.4 m 2.39,0.5 c 0.43,0.1 0.89,0.1 1.32,0.2 -0.43,-0.1 -0.88,-0.1 -1.32,-0.2 m 1.63,0.3 c 75.92,16 151.6,24.6 226.45,24.6 12.05,0 24.15,-0.2 36.15,-0.6 l 5634.5,-1.4 v 0 l -5634.5,1.4 c -12.1,0.4 -24.1,0.6 -36.17,0.6 -74.85,0 -150.51,-8.6 -226.43,-24.6"
         id="path100" /></clipPath></defs><sodipodi:namedview
     pagecolor="#ffffff"
     bordercolor="#666666"
     borderopacity="1"
     objecttolerance="10"
     gridtolerance="10"
     guidetolerance="10"
     inkscape:pageopacity="0"
     inkscape:pageshadow="2"
     inkscape:window-width="640"
     inkscape:window-height="480"
     id="namedview4" /><g
     id="g10"
     inkscape:groupmode="layer"
     inkscape:label="ink_ext_XXXXXX"
     transform="matrix(1.3333333,0,0,-1.3333333,0,2987.7333)"><g
       id="g12"
       transform="scale(0.1)"><path
         d="m 11968.3,18351.8 c -1092.8,-173.6 -2169.71,-396.1 -3225.87,-657.4 -1470.83,-363.8 -3070.5,-955.5 -3455.05,-2398.2 -299.62,-1124.1 261.86,-2461.8 1078.73,-3515.1 816.87,-1053.3 1873.46,-1908.9 2818.35,-2859.4 352.57,-354.6 713.47,-771.9 746.94,-1228 34.09,-464.4 -297.58,-832.2 -707.01,-994.1 C 8814.96,6537.7 8336.15,6539.9 7870.89,6531.8 6264.38,6504.1 4685.82,6331.1 3160.65,6015.4 2556.45,5890.4 1945.78,5736.2 1480.25,5377.7 1014.71,5019.1 717.363,4412.8 880.039,3776.5 1125.45,2816.5 2219.75,2232.4 3172.13,1856.2 9763.83,-747.898 17492.6,-453.102 23197.9,1985.8 c 615.4,263.1 1288.8,695 1196.1,1406.1 -70.2,539 -557.2,983.5 -901,1455.6 -820.1,1126.1 -853.9,2570.1 -402.9,3683.4 451.1,1113.3 1315.2,1960.4 2187.8,2755.9 614.2,559.8 1249.8,1117.3 1653.4,1850.5 403.6,733.3 546.8,1685.9 146.1,2556.9 -630.5,1370.6 -2285.5,2025.8 -3729.1,2365.4 -3854.3,906.6 -7707.4,875.6 -11380,292.2"
         style="fill:#d0dff4;fill-opacity:1;fill-rule:nonzero;stroke:none"
         id="path14" /><path
         d="M 26420.9,0 H 660.34 C 297.148,0 0,297.102 0,660.301 0,1023.5 297.148,1320.6 660.34,1320.6 H 26420.9 c 363.2,0 660.3,-297.1 660.3,-660.299 C 27081.2,297.102 26784.1,0 26420.9,0"
         style="fill:#aec4e9;fill-opacity:1;fill-rule:nonzero;stroke:none"
         id="path16" /><path
         d="m 20177.7,4010.2 c -39.7,1364.3 -78.3,2729.5 -43.8,4094.3 34.1,1352.2 140.5,2705.9 391.3,4036.3 215.2,1141.3 541.3,2260.1 1011,3323.4 434.8,984.2 988.3,1919.3 1670.4,2752.8 678.2,828.8 1488.2,1554.9 2411.2,2101.4 112.3,66.5 226.2,130.2 341.5,191.5 55.8,29.6 13.9,118.9 -42.3,89 -944.7,-502.6 -1782.7,-1183 -2495.3,-1979.5 -722.2,-807.4 -1312.7,-1727.5 -1784,-2701.6 -490.9,-1014.8 -847.1,-2088.4 -1091.5,-3188 -295.7,-1330.9 -435.9,-2691.3 -491.9,-4052.1 -56.7,-1380.8 -28.3,-2763.3 10.4,-4144.2 4.8,-171.6 9.8,-343.3 14.8,-514.9 1.8,-62.7 100,-71.8 98.2,-8.4"
         style="fill:#1e5a42;fill-opacity:1;fill-rule:nonzero;stroke:none"
         id="path18" /><path
         d="m 28973.7,17800.9 c -0.6,-43.1 -59.9,-82.8 -169.8,-118 -27.5,-9 -58.1,-17.1 -91.8,-25.9 -33.7,-8.9 -70.5,-17.6 -110.1,-26.1 -39.7,-8.5 -82.3,-16.5 -127.7,-24.7 -45.4,-8.9 -93.7,-17.6 -144.6,-26 -50.9,-8.2 -104.6,-16.9 -160.9,-26 -56.2,-9.1 -115.1,-18 -176.4,-26.7 -61.3,-10 -125.1,-19.8 -191.4,-29.3 -16.5,-2.4 -33.2,-4.8 -50.1,-7.2 -16.8,-2.7 -33.8,-5.4 -50.9,-8.1 -34.3,-5.3 -69.2,-10.6 -104.6,-16.1 -283.4,-43.4 -603.2,-94.2 -952.3,-158.6 -174.7,-32.2 -359.6,-66.3 -553.3,-102 -48.3,-9.5 -97.3,-19.1 -146.7,-28.8 -49.4,-9.9 -99.8,-18.4 -150,-29.4 -100.7,-21.2 -204,-41.1 -308.4,-64.9 -209.4,-44.5 -424.9,-97 -645.8,-154.2 -55.1,-14.8 -110.5,-29.7 -166.3,-44.7 -28,-7.3 -55.7,-15.4 -83.6,-23.6 -28,-8.1 -56,-16.2 -84,-24.3 -112.8,-31.5 -225.1,-68.2 -339.4,-103.4 -227.1,-74.3 -456.8,-155.6 -686.2,-246.2 -228.7,-91.7 -457.6,-191.5 -683.2,-300.9 -225,-110.5 -447.1,-229.7 -663.4,-357.9 -215.4,-129.5 -425,-267.6 -626,-413.8 201,146.1 405.2,291.8 612.4,435 208.1,142 419.1,281.3 632.4,416.7 213.9,134.4 430.3,263.9 647.5,388.2 217.8,123.1 436.9,239.9 655.3,350.2 110,53.2 218.5,108.1 327.9,157.7 27.3,12.6 54.5,25.2 81.7,37.8 27.1,12.6 54.2,25.2 81.5,37 54.5,23.8 108.7,47.6 162.6,71.2 216.7,92 430.3,177.6 640.5,251 104.7,38.1 208.9,71.3 311.2,104.4 51,17 102.2,31.1 152.7,46.3 50.5,14.7 100.4,29.7 150.2,43.2 199,53.5 390.9,99.1 574,132.1 366,67.5 703.9,105.5 1003,122.3 37.4,1.9 74.2,3.7 110.4,5.5 18,0.7 35.9,1.5 53.7,2.3 17.8,0.4 35.4,0.7 52.9,1.1 69.8,1.2 137.1,1.9 201.6,1.9 64.6,-1.1 126.5,-3 185.5,-5.3 29.6,-1.3 58.4,-2.1 86.5,-4.1 28.1,-2.2 55.5,-4.3 82.1,-6.3 53.3,-4.5 103.7,-9.4 150.9,-14.7 47.3,-6 91.6,-12.8 132.6,-19.8 41.1,-7 79,-14.4 113.7,-22.1 34.6,-7.9 66,-17 94.1,-25.9 112.2,-35.9 170.6,-75.9 170,-118.9"
         style="fill:#1e5a42;fill-opacity:1;fill-rule:nonzero;stroke:none"
         id="path20" /><path
         d="m 19210.4,21990.6 c 23.6,36 85.2,42.3 181.8,19.6 24,-5.9 50.7,-12.9 78.6,-22.9 27.9,-10.1 57.8,-22 89.7,-35.9 31.8,-13.9 65.8,-29.3 101.4,-47.1 34.9,-18.6 71.7,-39 110.3,-61.4 19.2,-11.3 39,-22.9 59.2,-34.8 20.2,-12 39.9,-25.7 60.5,-39.2 40.9,-27.2 83.6,-56.3 127.6,-87.4 43,-32.3 87.4,-66.4 133.2,-102.5 11.4,-9 22.9,-18.2 34.6,-27.4 11.2,-9.6 22.6,-19.3 34.1,-29.1 22.8,-19.8 46,-39.9 69.6,-60.3 187.2,-165.4 384,-370.7 573.9,-616.2 95.7,-122.2 186.6,-259.3 275.4,-406.2 22,-36.8 42.8,-75 64.3,-113.1 10.7,-19.2 21.4,-38.4 32.1,-57.8 5.3,-9.7 10.7,-19.4 16,-29.2 5,-9.9 10.1,-19.8 15.2,-29.8 40.3,-79.8 82,-160.6 119.1,-245.5 77.9,-167.8 146,-346.5 209.5,-530.7 15.1,-46.4 30.2,-93 45.5,-139.9 7.8,-23.3 14.6,-47 21.4,-70.9 6.9,-23.7 13.7,-47.6 20.6,-71.5 6.9,-23.8 13.7,-47.7 20.6,-71.7 7.1,-23.9 12.6,-48.4 18.9,-72.6 12.3,-48.6 24.6,-97.3 37,-146.3 45,-196.9 83.5,-397.7 113.2,-601.2 28,-203.8 49.1,-409.6 61.8,-615.9 11,-206.6 14.9,-413.2 12,-618.6 -5,-205.6 -16.6,-409.5 -33.2,-611.3 16.6,201.8 19,406.5 8,610.8 -13.1,204.2 -39.8,407.7 -77.7,607.6 -39.6,199.8 -91.6,395.7 -151.8,585.8 -61.8,189.9 -133.5,373.4 -210.4,549.9 -20.3,43.7 -40.5,87.2 -60.5,130.5 -10.3,21.5 -19.6,43.2 -30.5,64.3 -10.6,21.2 -21.3,42.2 -31.9,63.3 -10.6,21 -21.1,41.9 -31.6,62.8 -10.5,20.9 -20.9,41.7 -32.3,62 -22.1,40.7 -44.2,81.3 -66,121.5 -90.2,159.5 -181.3,312 -276.5,454.4 -45.9,72.2 -94.9,140.5 -141.1,208.3 -5.8,8.5 -11.5,17 -17.3,25.4 -6,8.3 -12,16.5 -17.9,24.8 -11.9,16.4 -23.8,32.8 -35.6,49.1 -23.7,32.5 -46.2,65.1 -69.5,96.7 -94.1,125.7 -183.7,245.2 -270.7,356.2 -172.7,223.2 -340,418.6 -491.9,588.6 -19,21.3 -37.8,42.2 -56.2,62.7 -9.1,10.4 -18.2,20.7 -27.1,30.9 -9.3,9.9 -18.5,19.7 -27.6,29.4 -36.3,38.9 -71,77 -104,114 -34.1,35.8 -66.6,70.4 -97.2,104.2 -15.5,16.7 -30,33.8 -45,49.4 -14.8,15.9 -29.3,31.4 -43.4,46.5 -28.1,30.5 -54.3,59.9 -78.6,88.3 -24.8,27.5 -48.1,53.6 -69.2,78.8 -21.1,25.1 -40.2,49.2 -57.2,72.1 -17.2,22.7 -33,43.2 -46.1,63.1 -53,79.1 -70.6,139.3 -47.1,175.4"
         style="fill:#1e5a42;fill-opacity:1;fill-rule:nonzero;stroke:none"
         id="path22" /><path
         d="m 24584.9,16293.1 c 26.1,-34.2 18.6,-90.4 -19.4,-164.7 -19,-37.1 -45.6,-78.7 -79.4,-124.4 -16.9,-22.9 -35.6,-46.7 -56.1,-71.5 -20.2,-25.1 -42.2,-51.2 -65.9,-78.1 -47.4,-54 -101.6,-111.5 -162.2,-172.3 -60,-61.5 -126.5,-126.3 -198.9,-193.9 -144.4,-135.9 -311.9,-284.4 -498.8,-443.3 -374.1,-317.2 -874.3,-665.8 -1398.6,-1064.1 -261.2,-199.9 -528.4,-411.8 -787.5,-636.5 -258.5,-225.4 -509.1,-463.5 -738.2,-712.9 229.1,249.4 452.8,512.3 672.7,777 220.1,265.5 438.9,529.3 650.4,784.3 427.1,508.3 839.3,975.1 1221.1,1298.7 190.5,162.1 371,301.8 535.9,418.1 82.7,57.8 161.2,110.2 235,156.7 74.3,45.9 143.8,86 208,120.2 32,17.1 62.8,32.7 92.1,46.8 29.5,13.9 57.7,26.2 84.4,37 53.3,21.5 100.6,37 141.5,46.1 81.8,18.2 137.8,11 163.9,-23.2"
         style="fill:#1e5a42;fill-opacity:1;fill-rule:nonzero;stroke:none"
         id="path24" /><path
         d="m 22296.3,20678.5 c 37.7,-20.9 43.7,-93.4 21.1,-209.7 -5.6,-29.1 -13.4,-60.7 -22.1,-95.4 -8.6,-34.8 -19,-72.2 -31,-112.2 -11.9,-39.9 -25.7,-82.4 -40.8,-127.4 -14.5,-45.4 -30.5,-93.2 -48.1,-143.4 -17.9,-50 -36.6,-102.7 -56.3,-158 -19.7,-55.3 -40.9,-112.8 -63.4,-172.6 -21.5,-60.2 -44.4,-122.6 -68.7,-187.1 -6.1,-16.2 -12.3,-32.4 -18.5,-48.9 -6,-16.5 -12,-33.1 -18.1,-49.9 -12.3,-33.5 -24.9,-67.6 -37.7,-102.3 -102.2,-277.2 -216.5,-590.7 -334.6,-937 -59.3,-173.2 -122.1,-356.5 -187.8,-548.6 -16.1,-48.1 -32.3,-96.9 -48.7,-146.1 -16.2,-49.4 -33.9,-98.9 -49.7,-149.5 -32.2,-101 -66.8,-203.7 -98.8,-309.2 -66.7,-210.2 -130,-429.7 -192.3,-656.1 -15.1,-56.8 -30.2,-113.9 -45.5,-171.4 -15.5,-57.4 -28.9,-115.7 -43.6,-174.1 -29.9,-116.7 -55.4,-235.6 -83.1,-355.5 -51.5,-240.4 -98.5,-486.7 -137.9,-737.3 -38.1,-250.6 -69.7,-505.4 -91.9,-762.2 -21.1,-256.9 -33.5,-515.7 -35.8,-774.2 -0.8,-258.3 8.3,-516.1 28.3,-770.8 -20,254.7 -38.3,511.8 -53.5,770.2 -13.8,258.5 -24.2,518.2 -30.6,777.6 -5.2,259.4 -5.5,518.5 -1.3,775.4 5.4,256.9 16.5,511.6 32.3,762.2 9.9,125 17.7,249.5 30.3,372.1 6.1,61.4 11,122.7 18.1,183.3 6.9,60.7 13.8,121 20.6,181 29.9,239.6 63.5,473.3 105.4,697.7 19.5,112.6 42.9,222.3 65.5,330.2 10.8,54 24.1,106.9 36.2,159.5 12.5,52.5 24.5,104.6 37.6,155.8 52.9,204.6 108.9,398.8 171.1,579.2 123.1,361.1 257,682.9 389.6,959.9 16.8,34.6 33.4,68.5 49.6,101.9 8.2,16.6 16.4,33.1 24.4,49.4 8.4,16.2 16.8,32.3 25.1,48.1 33.2,63.5 65.7,124.3 97.3,182.4 32.7,57.6 64.7,112.5 95.6,164.6 15.6,26 30.5,51.5 46,75.8 15.7,24.3 30.9,48 45.8,71.1 29.9,45.9 58.8,89 86.6,129.1 28.4,39.8 56,76.5 82.2,110.2 26.2,33.8 51.2,64.5 74.9,92.1 23.8,27.5 47.1,51.6 68.6,72.7 86.2,84.4 150,118.3 187.6,97.4"
         style="fill:#1e5a42;fill-opacity:1;fill-rule:nonzero;stroke:none"
         id="path26" /><path
         d="m 16131.4,15627.1 c 14.4,40.6 72.9,61.3 172.2,62.2 24.7,0.1 52.3,-0.4 81.8,-3.4 29.5,-3.1 61.4,-7.5 95.7,-13.3 34.3,-5.8 71,-12.6 109.8,-21.3 38.4,-9.5 79.1,-20.4 122,-32.6 21.4,-6.3 43.3,-12.7 65.8,-19.3 22.6,-6.8 45,-15.1 68.3,-23.1 46.4,-16.4 94.8,-34 145.2,-53.3 49.6,-20.6 101.1,-42.6 154.4,-66.1 13.3,-5.9 26.7,-11.9 40.2,-17.9 13.3,-6.5 26.8,-13 40.3,-19.6 27.1,-13.4 54.6,-27 82.5,-40.9 222.7,-112.9 465.1,-260.9 712.3,-448.3 124.1,-93 247.9,-201.2 372.4,-319.2 31.1,-29.6 61.3,-60.9 92.2,-91.9 15.3,-15.6 30.8,-31.3 46.3,-47.1 7.7,-7.9 15.4,-15.9 23.2,-23.8 7.5,-8.2 15,-16.4 22.6,-24.7 60.3,-66 122.2,-132.7 180.9,-204.3 120.3,-140.5 234.9,-293.7 346.8,-453.3 27.4,-40.4 54.8,-81 82.5,-121.9 14,-20.2 27.1,-41.2 40.3,-62.1 13.2,-21 26.5,-42 39.8,-63 13.2,-21 26.5,-42.1 39.9,-63.2 13.4,-21 25.6,-43 38.5,-64.5 25.4,-43.2 51,-86.5 76.6,-130.1 99,-176.3 193.1,-358.1 280.4,-544.7 85.8,-187.3 166.1,-378.4 239.2,-572.1 71.8,-194.5 137.3,-391 196.8,-588.1 57.7,-197.9 109.3,-396.1 156.3,-593.6 -47,197.5 -107.6,393.6 -180.1,585.5 -74.5,191.2 -160.9,378 -256.5,558.4 -97,179.8 -204,352.7 -316.9,518 -114.3,164.6 -235.7,320.8 -359.8,469.1 -31.8,36.3 -63.5,72.6 -95.1,108.6 -15.9,17.9 -31,36.2 -47.4,53.5 -16.2,17.5 -32.4,34.8 -48.5,52.2 -16.1,17.2 -32.1,34.5 -48.1,51.7 -16,17.2 -31.8,34.4 -48.4,50.8 -32.8,33.2 -65.3,66.2 -97.6,99 -131.2,129.1 -261.2,251.5 -392,363.5 -64.1,57.3 -130,110.3 -193,163.6 -7.9,6.6 -15.8,13.3 -23.6,19.9 -8.1,6.4 -16.1,12.8 -24.1,19.1 -15.9,12.8 -31.8,25.5 -47.6,38.1 -31.6,25.2 -62.2,50.8 -93.3,75.1 -124.7,97 -243.4,189.2 -357,274.2 -226.3,171.5 -439.3,318.5 -630.4,445.6 -23.9,15.9 -47.4,31.5 -70.5,46.8 -11.5,7.8 -23,15.5 -34.3,23.2 -11.5,7.3 -22.9,14.6 -34.2,21.8 -45.2,28.8 -88.5,57.1 -129.9,84.9 -42.2,26.4 -82.4,52.2 -120.7,77.4 -19.2,12.5 -37.6,25.5 -56.1,37.1 -18.4,11.8 -36.3,23.4 -53.8,34.6 -34.8,22.8 -67.6,45.1 -98.2,66.8 -31,20.8 -60.1,40.5 -86.8,60 -26.7,19.3 -51.1,38.2 -73.3,56.3 -22.2,18 -42.5,34.2 -60.1,50.4 -70.6,64.4 -102.2,118.7 -87.9,159.3"
         style="fill:#1e5a42;fill-opacity:1;fill-rule:nonzero;stroke:none"
         id="path28" /><path
         d="m 25299.8,13431.2 c 9.7,-42 -26.7,-91.9 -102.6,-147 -19,-13.9 -40.5,-27.6 -64.2,-42.5 -23.7,-15 -49.7,-30.4 -78.1,-46.1 -28.3,-15.7 -58.9,-31.5 -91.7,-47.9 -32.6,-17.1 -67.3,-34.5 -104.2,-52.1 -36.9,-17.4 -75.8,-35.8 -116.6,-55 -40.7,-19.2 -83.5,-38.6 -128.2,-58.3 -44.3,-20.9 -90.6,-41.9 -138.8,-63.2 -12.1,-5.3 -24.3,-10.7 -36.5,-16.1 -12.2,-5.6 -24.5,-11.3 -36.9,-17.1 -24.9,-11.2 -50.2,-22.7 -75.9,-34.3 -205.6,-93 -437,-198.7 -687.8,-321.1 -125.7,-60.9 -258.7,-125.4 -398.1,-193 -34.7,-17.2 -69.8,-34.7 -105.4,-52.4 -35.4,-17.8 -71.9,-34.6 -107.7,-53.6 -72.1,-37.1 -146.5,-73.6 -220.8,-113.7 -150,-77.6 -302.6,-163.2 -458.5,-253.9 -38.7,-23.1 -77.7,-46.4 -116.9,-69.8 -39.4,-23.2 -77.7,-48.3 -117.1,-72.7 -79.1,-48.3 -156.3,-101 -235.6,-152.9 -156.1,-106.7 -312.5,-220.1 -465.9,-341.4 -152.5,-122.2 -302.8,-251.5 -447.3,-388.4 -143.7,-137.7 -282.3,-282.3 -413,-433.4 -129.6,-151.9 -251.3,-310 -363.1,-472.8 111.8,162.8 225.9,326.1 343.3,488.5 118.5,161.4 240.3,321.7 365.2,479.6 125.7,157 255.2,311 387.1,461 132.8,149.2 268.9,293.7 406.7,432.7 70.1,68.1 138.6,137.3 209.6,202.2 35.3,32.6 69.8,66.1 105.5,97.6 35.7,31.7 71.2,63.2 106.4,94.5 142.6,123.4 285.1,241 428.7,347.1 71,54.3 143.2,104.2 214,153.6 35.1,25 71.3,47.7 106.5,71 35.5,23 70.4,46.1 105.7,67.8 141,86.5 278.8,164.5 413.4,229.4 268.5,131.1 523.2,230.2 752.7,302.1 28.8,8.8 57.1,17.4 84.9,25.9 13.9,4.1 27.7,8.2 41.4,12.3 13.8,3.7 27.5,7.3 41,11 54.3,14.3 106.6,27.6 157,39.7 50.7,11.1 99.5,21.1 146.1,30 23.4,4.3 46,8.9 68.4,12.3 22.5,3.3 44.3,6.4 65.6,9.5 42.6,5.9 83,10.7 121.1,14.5 38.3,3.3 74.4,5.1 108,6.2 33.6,1 64.9,1.1 93.6,0.2 28.8,-1 55.4,-3.8 79.2,-7 95.6,-13.3 150.1,-41 159.8,-83"
         style="fill:#1e5a42;fill-opacity:1;fill-rule:nonzero;stroke:none"
         id="path30" /><path
         d="m 23705.1,17465.6 c 151.5,-82 -139.2,-873 -752.1,-2005.5 -613,-1132.4 -1771.2,-2656.2 -2608.9,-4204 837.7,1547.8 1480.2,3350.7 2093.1,4483.2 613,1132.4 1116.4,1808.3 1267.9,1726.3"
         style="fill:#1e5a42;fill-opacity:1;fill-rule:nonzero;stroke:none"
         id="path32" /><path
         d="m 18389.7,13926.8 c 40.8,-13.7 64.1,-73.4 71.1,-170.8 1.9,-24.4 2,-50.9 2.6,-80.2 0.8,-29.3 0.7,-60.9 -0.3,-94.6 -0.9,-33.8 -3,-69.6 -5.4,-107.7 -1.3,-38.4 -3.5,-78.9 -6.4,-121.4 -1.6,-21.2 -3.3,-42.9 -5,-65.2 -1.9,-22.2 -2.4,-45.3 -4,-68.7 -2.7,-46.8 -6.3,-95.5 -10.4,-146.2 -2.2,-51 -5.1,-103.8 -8.7,-158.5 -0.9,-13.7 -1.8,-27.5 -2.7,-41.4 -0.5,-13.9 -1,-28 -1.5,-42.2 -1.1,-28.4 -2.3,-57.2 -3.6,-86.6 -9.3,-234.4 -12.5,-499.1 0.7,-789.1 5.6,-145.1 15.7,-298.5 26.9,-459.8 3,-40.3 7.6,-80.9 11.1,-122.1 1.8,-20.6 3.6,-41.3 5.4,-62.2 1,-10.4 1.9,-20.9 2.8,-31.3 1.2,-10.5 2.5,-20.9 3.7,-31.4 10.2,-83.9 18.2,-170.1 31.9,-257.1 22.9,-174.9 56.9,-354.7 96.8,-539.2 10.8,-45.9 21.7,-92.2 32.7,-138.7 5.1,-23.4 11.5,-46.5 17.9,-69.7 6.3,-23.3 12.6,-46.6 19,-69.9 6.3,-23.5 12.7,-47 19.1,-70.5 6.1,-23.7 14.1,-46.7 21.1,-70.2 14.6,-47 29.2,-94.2 43.9,-141.6 63.6,-187.9 136.5,-377.5 222.3,-564.6 87.4,-186.2 185.7,-370.6 297,-548.8 112.8,-177.1 237.3,-348.4 373.2,-510 137.8,-160 286.6,-310.1 444.4,-447.1 -157.8,137 -312.7,280.1 -462.9,430 -148.5,151.5 -291.8,309.5 -428.9,473.3 -135.6,164.9 -263.6,336 -384.1,511 -119,175.9 -228.6,356.6 -329.8,539.1 -24.1,46.2 -48.2,92.2 -72.2,138 -11.7,23.1 -24.5,45.7 -35.3,69.1 -11.2,23.2 -22.3,46.4 -33.4,69.5 -11.1,23.2 -22.1,46.4 -33.1,69.4 -11.1,23.1 -22.2,46.1 -32,69.6 -20.3,46.7 -40.5,93.2 -60.5,139.4 -76.6,186.2 -145.4,371.6 -198.4,555.4 -28.7,91.4 -50.7,182.8 -73.2,272.6 -2.7,11.2 -5.5,22.4 -8.3,33.6 -2.3,11.2 -4.7,22.4 -7.1,33.6 -4.6,22.4 -9.3,44.8 -13.8,66.9 -8.9,44.5 -18.4,88.4 -25.9,132.2 -29.2,175.1 -49.8,344.1 -56.1,504.6 -14.7,320.9 5,614.8 44.6,870.3 5.3,31.8 10.5,63.2 15.6,94 2.6,15.4 5.3,30.7 7.9,45.8 3.2,15 6.4,29.9 9.5,44.6 12.9,59 25.8,115.5 38.8,169.6 14.8,53.7 29.9,105 44.7,153.7 7.7,24.3 14.4,48.1 22.7,71 8.4,22.7 16.7,45 24.7,66.6 16.3,43.1 32.4,83.5 48.2,121.2 16.9,37.5 34.1,72.1 50.6,104 16.5,31.8 32.6,60.9 48.2,87.1 15.9,26.2 32.7,49.1 48.1,69.4 62.4,81 114.9,115.8 155.8,102.2"
         style="fill:#1e5a42;fill-opacity:1;fill-rule:nonzero;stroke:none"
         id="path34" /><path
         d="m 28803.9,19467.8 c -6.7,-42.6 -54.3,-76.3 -136.2,-101 -41,-12.3 -90.5,-22.4 -148,-30.1 -28.8,-4 -59.5,-7 -92.2,-10.1 -32.8,-4.1 -67.5,-7.7 -104,-10.8 -73.1,-6.1 -153.5,-10.1 -240.7,-12.1 -87.5,-5.7 -181.8,-9.5 -282.4,-11.2 -12.6,-0.2 -25.2,-0.4 -38,-0.6 -12.8,0 -25.6,-0.2 -38.6,-1.1 -26,-1.1 -52.4,-2.3 -79.1,-3.5 -53.5,-2.2 -108.5,-3.9 -165,-5.1 -28.2,-0.5 -56.8,-1.1 -85.8,-1.6 -29,-1.5 -58.3,-3 -88,-4.5 -59.4,-2.8 -120.2,-5.2 -182.4,-7.1 -62.3,-0.7 -126.2,-5.4 -192,-7.8 -65.7,-2.6 -133.3,-4.3 -202.6,-5.2 -69.1,-2.7 -139.7,-6.6 -212.1,-8.9 -72.4,-2.8 -146.6,-3.3 -221.5,-9.3 -75.2,-4.7 -151.8,-9 -229.9,-13.1 -39.2,-1.3 -78.1,-5.9 -117.6,-9.2 -39.5,-3.5 -79.3,-7 -119.3,-10.5 -40.2,-3.5 -80.6,-7 -121.3,-10.5 -20.4,-1.4 -40.7,-4.1 -61,-6.7 -20.3,-2.5 -40.8,-5.1 -61.2,-7.7 -82.2,-10.3 -165.2,-20.8 -249,-31.4 -333.6,-51.7 -678.7,-123.9 -1019,-227.3 -338.7,-106.9 -672.1,-243.8 -981.8,-412 309.6,168 625.9,337.7 948,497.2 323.5,155.8 652.3,300.2 978.9,425.9 82.4,29.2 164.2,58.1 245,86.7 20.4,7.2 40.6,14.3 60.8,21.4 20.2,7.2 40.4,14.4 60.7,20.3 40.7,12.5 81.2,24.9 121.4,37.2 40.3,12.2 80.4,24.4 120.2,36.5 40,11.7 79.5,24.7 119.4,34.1 79.5,20.3 158.1,40 235.6,58.9 77.3,20.2 154.4,33.8 230,48.2 75.6,14 149.9,28 222.9,39.2 73.2,9.3 144.9,17.6 214.9,24.8 70.1,7 138.3,14.2 205,15.1 66.6,2.1 131.7,3.6 195.3,4.7 31.8,0.3 63.2,0.7 94.2,1.1 31.1,-0.6 61.7,-2 91.9,-3.1 60.4,-2.4 119.2,-5.3 176.2,-8.6 28.5,-1.8 56.6,-3.5 84.2,-5.2 13.8,-0.8 27.5,-2.2 41.1,-3.8 13.5,-1.6 27,-3.1 40.3,-4.6 106.7,-12.6 206,-26.4 297.2,-41.3 91,-18.5 173.9,-38.1 248,-58 37.1,-10 72,-20.2 104.7,-30.4 32.5,-11.3 62.7,-23.2 90.7,-34.7 56,-23.3 102.7,-46.6 139.7,-69.6 74,-46 109.2,-91.1 102.4,-133.6"
         style="fill:#1e5a42;fill-opacity:1;fill-rule:nonzero;stroke:none"
         id="path36" /><path
         d="m 26653.2,22339.2 c 14.7,-40.5 -10.1,-92.7 -68.1,-152.9 -14.4,-15.2 -31.2,-30.4 -49.5,-47 -18.3,-16.8 -38.6,-34.1 -60.8,-51.9 -22.2,-17.8 -46.3,-35.9 -72.1,-54.8 -25.6,-19.7 -52.9,-39.8 -81.9,-60.4 -14.6,-10.3 -29.6,-20.7 -45,-31.2 -15.4,-10.4 -30.8,-22.1 -46.8,-33.2 -32,-22.6 -65.7,-45.6 -100.9,-69 -34.7,-24.7 -70.9,-49.9 -108.8,-75.4 -9.4,-6.3 -19,-12.7 -28.6,-19.2 -9.5,-6.7 -19,-13.5 -28.7,-20.4 -19.4,-13.5 -39.1,-27.3 -59.1,-41.2 -160.1,-111.7 -338.9,-239.8 -529.1,-388.2 -95.5,-73.6 -195.6,-152.9 -301.3,-236 -26.3,-20.9 -52.2,-42.8 -79,-64.4 -13.4,-10.8 -26.9,-21.7 -40.4,-32.6 l -20.4,-16.4 -20,-17 c -53.5,-45.6 -109.5,-90.9 -163.9,-139.9 -111.3,-95.7 -222,-200.3 -333.8,-310.7 -27.6,-28.1 -55.3,-56.3 -83.2,-84.7 -14.2,-14.1 -27.7,-28.8 -41.3,-43.6 -13.6,-14.7 -27.3,-29.5 -41,-44.3 -27.5,-29.6 -55.3,-59.3 -81.7,-90.4 -26.9,-31 -53.9,-62 -81,-93.2 -105.7,-127.2 -209,-261.3 -305.9,-402.9 -95.7,-142.2 -186.1,-291 -267.5,-446 -80,-155.6 -151.8,-316.7 -212.6,-481.9 -59.1,-165.5 -107.4,-334.8 -143,-505.1 35.6,170.3 74.9,341.5 119,512.6 45.7,170.7 96.4,341.1 152.3,510.2 57.2,168.5 120.4,335.1 188.7,498.8 69.4,163 145.1,322.3 225.1,477.1 20.9,38.3 41.6,76.4 62.2,114.3 20.3,38.4 42.2,75.4 63.9,112.4 10.9,18.5 21.7,37 32.5,55.4 10.8,18.5 21.6,36.9 33.1,54.7 22.7,36 45.2,71.9 67.7,107.4 92.1,140.8 187,276.1 287.4,400.3 49,63.3 100.9,122.3 151.5,180.7 6.3,7.3 12.7,14.6 19,21.8 6.5,7 13,14.1 19.5,21.1 13.1,13.9 26.1,27.8 39,41.6 26,27.5 51.5,55.1 77.7,81.3 105.3,104.4 210.5,199.9 316.6,281.7 211.4,164.9 419.9,294.6 612.1,392.7 24.2,12 47.9,23.9 71.3,35.5 11.7,5.7 23.3,11.3 34.8,17 11.7,5.2 23.3,10.3 34.8,15.4 46.1,20.3 90.7,39.3 133.6,56.9 43.6,16.4 85.6,31.4 125.9,45.2 20.2,6.8 39.7,13.8 59.2,19.4 19.5,5.7 38.6,11.1 57.2,16.1 37.3,10.1 72.7,19 106.1,26.5 33.8,6.9 65.8,12.1 95.7,16.4 29.9,4.2 57.8,7.3 83.6,9.1 25.9,1.7 50,1.2 71.8,0.2 87.2,-4.7 139.5,-27.4 154.1,-67.9"
         style="fill:#1e5a42;fill-opacity:1;fill-rule:nonzero;stroke:none"
         id="path38" /><path
         d="m 24700.9,16800.7 c 34.3,-26 45.6,-75.9 34.4,-147.2 -5.6,-35.7 -16.8,-76.6 -33.5,-122.5 -8.4,-22.9 -17.9,-47.2 -29.2,-72.4 -11.9,-24.7 -25.2,-50.5 -39.8,-77.4 -29.4,-53.8 -64.2,-111.9 -104.5,-173.8 -42.3,-59.9 -90.1,-123.6 -143.1,-190.3 -13.4,-16.5 -26.4,-34 -41.1,-50.3 -14.7,-16.4 -29.5,-33 -44.6,-49.9 -30.3,-33.6 -61.9,-67.9 -94.8,-102.8 -16.5,-17.4 -33.1,-35.1 -50.4,-52.6 -17.8,-17 -35.9,-34.1 -54.1,-51.5 -36.7,-34.6 -74.7,-69.7 -113.8,-105.1 -38.5,-36.2 -81.5,-69.6 -125.6,-103.8 -44.1,-34.2 -90,-68.5 -137.3,-102.8 -48.2,-33.3 -98.8,-65.5 -150.2,-98.3 -51.7,-32.6 -103.8,-66.3 -159.7,-96.3 -55.3,-30.9 -111.7,-61.8 -168.9,-92.8 -28.3,-15.9 -58.3,-29.7 -88,-44.3 -29.7,-14.4 -59.6,-28.9 -89.7,-43.5 -30,-14.4 -60.3,-28.9 -90.7,-43.5 -15.1,-7.5 -30.7,-14.2 -46.3,-20.9 -15.6,-6.7 -31.3,-13.4 -47,-20.2 -62.5,-26.8 -125.6,-53.9 -189.3,-81.2 -257.6,-102.5 -525.9,-195.5 -795.9,-281.1 -271.3,-82.8 -543.3,-158.7 -809.4,-235.9 266.3,77.2 527.4,188.3 773.7,320.3 245.4,134.9 475,290.9 686.3,451.4 51.7,41.6 102.9,82.8 153.7,123.7 12.6,10.1 25.2,20.2 37.7,30.3 12.6,10.1 25.1,20.1 37.1,30.8 24.2,21.1 48.2,42 72.1,62.7 23.9,20.7 47.6,41.2 71.1,61.5 23.4,20.5 47.3,39.8 69.4,61.1 45,41.7 89.4,82.3 133.1,121.8 44.4,38.7 85.5,79.8 126.8,118.5 41.1,39 82.1,76.1 121.8,112.7 38.8,37.8 77.1,74 115.1,108.6 37.8,34.7 76,66.9 111.4,100.2 35.9,32.7 71.3,64.2 106.3,94.7 17.6,15.1 34.9,30.1 52.1,44.8 16.7,15.3 33.2,30.3 49.5,45.2 32.6,29.6 64.8,58 96.4,85.4 15.9,13.5 31.6,26.9 47.1,40.1 15.7,12.9 29.9,26.8 44.7,39.8 58.7,52.3 115.2,99.9 169.1,142.6 51.9,44.5 101.3,84.1 148,118.3 23.4,17.1 46,32.9 68,47.4 21.3,14.9 41.5,28.8 61.2,41.1 39.4,24.6 75.7,43.5 108.6,56.3 65.9,25.7 117.9,27.2 152.2,1.1"
         style="fill:#2e745b;fill-opacity:1;fill-rule:nonzero;stroke:none"
         id="path40" /><path
         d="m 23238,20793.1 c 32.9,-27.8 40.6,-81.2 26.2,-154.7 -3.6,-18.5 -8.9,-37.9 -14.9,-59 -6,-21.2 -13.2,-43.6 -21.8,-67.2 -8.5,-23.6 -18.5,-48.3 -29.4,-74.2 -10.6,-26.3 -22.3,-53.6 -35.3,-82.1 -26.6,-56.3 -54.9,-119.2 -89,-185 -16.1,-33.5 -33.3,-68.1 -51.7,-103.5 -4.6,-8.9 -9.2,-17.8 -13.9,-26.8 -4.5,-9.1 -9.1,-18.3 -13.7,-27.5 -9.4,-18.4 -18.9,-37.1 -28.6,-56.2 -77.8,-151.9 -165.9,-322.4 -258.8,-511.4 -46.9,-94.3 -96.7,-194 -150.3,-298.4 -26.3,-52.5 -53.2,-106.2 -80.6,-161 -26.7,-55.3 -55.4,-111.2 -82.2,-169.3 -55.9,-115.3 -109.8,-236.7 -163.5,-363 -53.2,-126.4 -103.3,-258.5 -150.8,-394.9 -45.9,-136.7 -88.6,-278 -125.1,-423 -35.4,-145.1 -65.6,-293.7 -87.8,-444.4 -21.2,-150.8 -35.2,-303.6 -40.1,-456.4 -3.8,-152.8 1.3,-305.6 16.1,-456 -14.8,150.4 -29,302.3 -41.3,455.4 -11.1,153.1 -20.1,307.3 -26.2,461.9 -5.1,154.5 -6.7,309.3 -4.7,463.3 3,154 10.4,307 21.8,457.9 13,150.6 29.3,299.2 51.9,443.7 23,144.2 49.4,285 82.8,419.4 15.6,67.6 34.4,133 52.6,197.5 8.9,32.3 19.6,63.6 29.4,94.9 10.2,31.1 20,62.1 30.7,92.4 43.1,120.9 89.4,234.8 141,338.6 102.2,208.1 213.5,388.7 323.6,539.5 14,18.7 27.7,37.1 41.2,55.2 6.8,9 13.6,17.9 20.3,26.7 7,8.6 13.9,17.2 20.7,25.7 27.5,33.8 54.5,65.9 80.8,96.4 54.4,59.7 104.7,113.6 154.9,158.4 24.8,22.6 48.7,43.5 71.7,62.6 23.4,18.8 46.2,35.6 67.8,50.8 21.7,15.2 42.3,28.6 62,40.2 19.7,11.5 38.9,20.8 56.7,28.5 71.3,30.8 124.6,32.8 157.5,5"
         style="fill:#2e745b;fill-opacity:1;fill-rule:nonzero;stroke:none"
         id="path42" /><path
         d="m 27695.6,21120.9 c 26.9,-33.7 19.2,-90.6 -20.4,-167.2 -19.7,-38.3 -47.4,-81.6 -82.7,-129.3 -17.7,-23.8 -37.2,-48.8 -58.7,-74.8 -21.6,-25.7 -45,-52.5 -70.3,-80.3 -50.5,-55.6 -108.3,-115.1 -173,-178.1 -65.2,-62.3 -137.3,-127.9 -215.9,-196.5 -157.8,-136.5 -342.5,-283.4 -551.8,-435.3 -418.2,-304.6 -985.1,-608.8 -1596.8,-920.9 -306.5,-155.2 -624.2,-312.9 -941.1,-474.9 -317.5,-161.3 -634.2,-327.1 -938.2,-501.6 304.1,174.5 602.4,372.1 890.4,579.8 287.5,208.5 564.7,427.2 828.9,642.4 527.4,432.2 1001.3,850.4 1412.4,1149.8 205.9,149.5 396.6,281.9 568.7,394.2 85.9,56.5 167.3,107.5 243.9,153 76.1,46.2 147.2,86.7 213,121.4 32.9,17.3 64.4,33.1 94.5,47.5 30,14.5 58.5,27.6 85.5,39.1 54.1,23 102.2,39.8 143.9,50.1 83.3,20.6 140.8,15.2 167.7,-18.4"
         style="fill:#2e745b;fill-opacity:1;fill-rule:nonzero;stroke:none"
         id="path44" /><path
         d="m 27296.3,21214.5 c 13.4,-41 2.4,-86.9 -29.8,-135.4 -16.1,-24.3 -37.5,-49.3 -63.9,-74.7 -13.1,-12.7 -27.6,-25.4 -43.2,-38.4 -15.5,-13.4 -32.1,-26.8 -49.9,-40.3 -35.7,-27.1 -75.9,-54.3 -120.5,-81.7 -44.2,-28.6 -92.7,-57.4 -145.3,-86 -104.7,-58.4 -224.9,-118.8 -358.3,-181.7 -33.7,-15 -68,-31.2 -103.9,-46.5 -35.9,-15.3 -73.2,-30.2 -111.7,-44.7 -38.2,-15.2 -77.3,-30.6 -117.8,-45.5 -40.5,-15.1 -82.3,-29.4 -124.2,-45.5 -42.1,-15.7 -85.3,-31.3 -129.3,-46.9 -44.1,-15.7 -88.1,-33.1 -133.4,-49.8 -22.6,-8.3 -45.4,-16.8 -68.3,-25.3 -23.1,-8.4 -45.6,-17.9 -68.7,-26.9 -46.1,-18.4 -92.7,-36.9 -139.7,-55.6 -186.7,-78.3 -378.1,-167.2 -562.5,-272.3 -183.4,-106.1 -359.7,-228 -516.2,-366.8 156.5,138.7 308.6,288.3 460.7,439.7 152.9,150.2 305.7,301.7 458.7,445.6 38.8,35.3 77.3,70.3 115.4,104.9 19.2,17.2 38,35 57.4,51.5 19.4,16.6 38.7,33.1 57.9,49.5 38.5,32.6 76.3,65.7 114.8,96.3 38.5,30.6 76.7,60.5 114.6,89.6 37.7,29.5 76.1,56.3 113.9,82.5 37.8,26.1 75.1,51.6 112.2,75.2 37.5,23 74.6,44.8 111.2,65.3 36.6,20.3 72.4,39.8 108.6,56.1 143.4,67.5 279.2,118.2 402.2,153.8 61.8,17.2 120.1,31.3 174.6,42.2 54.9,9.7 105.9,16.2 152.6,19.7 23.3,1.8 45.6,2.8 66.7,3 21.2,-0.1 41.4,-1.2 60.4,-2.8 37.9,-3.5 71.1,-9.8 99.2,-19 56.3,-18.3 92.1,-48.2 105.5,-89.1"
         style="fill:#2e745b;fill-opacity:1;fill-rule:nonzero;stroke:none"
         id="path46" /><path
         d="m 23316.7,18241.1 c 32.5,-28.2 44.5,-75.6 37.7,-138.6 -3.5,-31.5 -11.6,-66.9 -24.3,-105.8 -6.3,-19.4 -13.9,-39.7 -22.4,-60.9 -8.3,-21.4 -17.7,-43.6 -28.1,-66.6 -21,-46.1 -46.2,-95.2 -75.6,-147.2 -28.6,-52.6 -61.2,-108.1 -97.9,-165.9 -72.5,-116.5 -159.3,-244 -258.2,-381.2 -198.4,-273.4 -489.4,-580.5 -782.7,-935.3 -145.3,-177.9 -291.1,-367 -424.6,-566.5 -132.4,-199.9 -252.8,-409.9 -349.2,-626 96.4,216 183.3,441.2 267.6,667.7 85.3,226 168.3,453.1 252.9,672.5 171.4,437 351.9,843.5 560.1,1130.4 103.5,143.6 207,268 305.3,371.8 49.5,51.7 97.4,98.5 143.2,140.3 46.6,41 91.1,77.1 133,108 21,15.4 41.3,29.5 61,42.3 19.9,12.6 39.3,23.7 57.8,33.6 37,19.7 71.1,34 101.9,42.8 61.6,17.5 109.9,12.8 142.5,-15.4"
         style="fill:#2e745b;fill-opacity:1;fill-rule:nonzero;stroke:none"
         id="path48" /><path
         d="m 20669.1,16390.6 c 32,-28.8 40.3,-80.9 29.2,-149.1 -2.5,-17.2 -7.1,-34.8 -11.5,-54.4 -4.3,-19.8 -9.7,-40.6 -16.1,-62.2 -6.4,-21.8 -14.3,-44.1 -22.4,-67.9 -7.4,-24.3 -15.8,-49.6 -25.1,-75.6 -4.7,-13.1 -9.6,-26.3 -14.8,-39.8 -5,-13.5 -9.3,-28 -14.3,-42.2 -9.8,-28.8 -20.9,-58.2 -32.2,-88.8 -10,-31.4 -21,-63.5 -32.9,-96.5 -6.3,-16.3 -11.5,-33.5 -16.9,-50.9 -5.6,-17.3 -11.3,-34.9 -17.1,-52.8 -45.9,-143.1 -92.6,-306.2 -133.1,-489.5 -11.5,-45.5 -19.8,-93.4 -31.3,-141.9 -6,-24.2 -10.5,-49.1 -15.6,-74.3 -5.1,-25.1 -10.5,-50.6 -16.2,-76.4 -4.8,-26 -9.7,-52.3 -14.7,-78.9 -4.9,-26.6 -11.1,-53.4 -15,-80.9 -8.8,-54.9 -19.5,-110.9 -26.7,-168.6 -17.7,-115.1 -29.1,-235.9 -38.3,-362.5 -1.9,-31.6 -3.7,-63.5 -5.5,-95.5 -2,-32.2 -2.2,-64.6 -3.4,-97.3 -1,-32.7 -2,-65.6 -1.7,-98.7 0,-33.3 0,-66.7 0,-100.2 2.4,-134.4 9.5,-272 22.4,-411.3 13.7,-139.1 32.4,-279.8 56.8,-420.3 24.8,-140.3 54.8,-280.5 89.8,-419 35.4,-138.3 75.5,-275 120.3,-408.6 -44.8,133.6 -93.6,267.3 -144.4,401.1 -50.4,133.8 -102.3,267.8 -154.1,402.1 -51.2,134.5 -101.5,269.4 -149.6,404.7 -47.2,135.4 -91.4,271.4 -131.1,407.4 -9.4,34.1 -18.7,68.2 -28,102.1 -9.7,33.9 -17.9,68 -26.1,102.1 -8,34 -17,67.8 -24.1,101.9 -7.1,34.1 -14.2,68 -21.3,101.7 -3.6,16.8 -6.8,33.7 -9.6,50.7 -2.9,16.9 -5.8,33.8 -8.7,50.6 -5.6,33.7 -12.1,67.1 -16,100.9 -4.3,33.7 -8.6,67.3 -12.9,100.5 -4.3,33.3 -6.2,66.6 -9.2,99.6 -6.3,66 -7.8,131.1 -9.5,195.3 -1.4,32.1 0.1,63.9 0.5,95.4 0.8,31.5 1.4,62.7 3,93.6 2.3,30.8 4.7,61.3 7.4,91.4 2.6,30.2 5.3,60 10,89.2 8.8,58.5 16.6,115.7 30.1,170.4 48.4,219.7 121.7,414.9 206.4,577.1 11,20.2 21.7,40 32.3,59.4 10.6,19.4 21,38.4 32.9,56.3 23,36.2 45.7,70.6 67.9,103.2 23.5,32 47.3,61.7 70.1,89.8 11.5,14 22.4,27.8 34.1,40.5 11.9,12.7 23.6,24.9 35.2,36.6 23,23.5 45.3,45 66.8,64.7 22.3,19.1 44.5,35.9 65.3,51 20.9,15.1 40.8,28.4 59.6,39.7 19.1,11.3 38.4,19.7 55.7,26.8 70.3,28.1 121.6,27.1 153.6,-1.7"
         style="fill:#2e745b;fill-opacity:1;fill-rule:nonzero;stroke:none"
         id="path50" /><path
         d="m 22611.8,14519.4 c 42.1,-9 73.2,-50.7 92.8,-122.5 9.8,-35.9 16.7,-79.2 20.6,-129.7 1.9,-25.2 3.4,-52.3 3.6,-80.9 -0.6,-28.4 -2,-58.5 -4.2,-90.3 -4.4,-63.4 -12.1,-133.4 -23.1,-209.3 -13.9,-75.1 -31.2,-156 -52.1,-242.1 -5.5,-21.5 -10.1,-43.7 -16.9,-65.4 -6.6,-21.9 -13.4,-44.1 -20.2,-66.6 -13.9,-45 -28.8,-91.2 -44.6,-138.5 -7.9,-23.6 -15.8,-47.7 -24.5,-71.7 -9.3,-23.8 -18.9,-47.9 -28.5,-72.3 -19.5,-48.7 -39.9,-98.4 -61.2,-149 -20.5,-51 -46.5,-101.3 -73,-153 -26.6,-51.6 -54.7,-104 -84.2,-157.2 -30.9,-52.5 -64.4,-105.1 -98.4,-158.7 -34.3,-53.4 -68.6,-108.1 -108.1,-161 -38.5,-53.4 -78,-107.3 -118.3,-161.7 -19.6,-27.5 -41.9,-53.6 -63.3,-80.5 -21.7,-26.6 -43.5,-53.4 -65.5,-80.3 -21.9,-26.9 -44.1,-53.8 -66.3,-81 -10.9,-13.7 -22.7,-26.8 -34.5,-40 -11.7,-13.1 -23.5,-26.3 -35.3,-39.6 -47.2,-52.7 -94.8,-105.9 -142.8,-159.6 -198,-209.7 -410.5,-414.9 -628.3,-613.3 -220.4,-196.3 -444.9,-385.9 -664.1,-573.4 219.3,187.6 419.5,404.8 596.6,635.4 175,233 325.9,479.2 457.4,722.1 31.2,61.6 62,122.7 92.6,183.2 7.6,15 15.2,30 22.7,45 7.6,14.9 15.2,29.7 21.9,45.1 13.9,30.3 27.7,60.5 41.4,90.4 13.7,29.9 27.3,59.5 40.9,88.9 13.4,29.5 27.7,58.1 39.5,87.8 24.6,58.9 49.1,116.6 73.4,172.9 25.4,55.7 46.4,112.4 68.8,167 22,54.8 44.7,107.7 66.3,159.6 20.3,52.6 40.8,103.6 61.6,152.9 20.6,49.3 42.7,96.5 61.4,143.5 19.6,46.6 39.3,91.9 58.9,136.1 9.9,22 19.7,43.8 29.4,65.3 9.1,21.7 18,43.2 26.8,64.4 17.8,42.3 35.5,83.4 53.3,123.2 9,19.8 17.8,39.3 26.5,58.6 9.2,19.1 16.4,38.6 24.6,57.3 32,75.4 64,145.3 95.7,209.5 28.9,65 57.6,124.3 86,177.4 14.2,26.5 28.4,51.5 42.4,74.9 13.2,23.6 25.8,45.7 38.7,66 25.6,40.8 50.8,74.8 75.4,101.7 49.3,53.6 96.1,78.4 138.2,69.4"
         style="fill:#2e745b;fill-opacity:1;fill-rule:nonzero;stroke:none"
         id="path52" /><path
         d="m 24650.7,13227.4 c 37.4,-21.4 47.8,-81.7 32.3,-176.8 -7.7,-47.6 -21.9,-103.8 -42.4,-168.2 -10.3,-32.1 -21.8,-66.4 -35.5,-102.3 -14.4,-35.5 -30.5,-72.8 -48.2,-112 -35.3,-78.2 -76.9,-163.9 -124.7,-256 -50.7,-90.2 -107.8,-186.8 -170.8,-289.1 -7.9,-12.8 -15.9,-25.7 -24,-38.6 -8,-13.1 -16.2,-26.1 -25,-38.8 -17.5,-25.6 -35.3,-51.6 -53.3,-77.9 -36.3,-52.7 -74.1,-106.6 -113.3,-161.7 -19.8,-27.5 -39.5,-55.5 -60.2,-83.4 -21.4,-27.3 -43.1,-55 -65,-83 -44.1,-55.9 -89.6,-112.9 -136.6,-170.8 -46.1,-58.7 -98.2,-115.1 -151.3,-173.3 -53.3,-58 -108.6,-116.8 -165.8,-176.4 -58.5,-58.4 -120.2,-116.3 -182.7,-175.5 -62.9,-58.9 -126.2,-119.6 -194.9,-176.8 -67.9,-58.1 -137.1,-116.8 -207.4,-176 -34.7,-30.1 -72,-58 -108.6,-86.9 -36.8,-28.6 -73.9,-57.4 -111.2,-86.4 -37.3,-28.9 -74.8,-57.9 -112.5,-87.1 -18.7,-14.8 -38.2,-28.7 -57.7,-42.7 -19.5,-14 -39.1,-28 -58.7,-42.1 -78.2,-56.1 -157.3,-112.8 -237.1,-170 -324.3,-221.2 -666.4,-435.5 -1015.1,-640.1 -351,-201.5 -707.3,-393.9 -1057.4,-581.8 350.2,188 688.7,412.5 1006,657.7 315.4,248.5 608.5,517.8 878,788.8 65.7,69.3 130.8,138.1 195.3,206.1 16,17 32.1,33.9 48,50.8 16,16.8 32,33.5 47.1,51.1 30.7,34.6 61.2,69 91.4,103.2 30.3,34 60.4,67.8 90.3,101.5 29.7,33.7 60.1,66.1 88,100.6 56.9,68.1 113,134.7 168.4,199.8 56.3,64.2 107.8,130.8 159.9,194.5 51.7,64 103.5,125.5 153.4,186.3 48.5,62 96.5,122.1 144,179.9 47.4,58 95.3,113 139,168.8 44.5,55 88.5,108.5 131.8,160.5 21.7,25.9 43.2,51.5 64.4,76.8 20.6,25.8 40.9,51.3 60.9,76.4 40.1,50.3 79.5,98.9 118.3,145.8 19.5,23.4 38.7,46.5 57.6,69.2 9.6,11.2 18.7,22.7 27.6,34.1 9,11.4 18,22.7 26.9,33.9 71.1,89.6 139.5,172.2 204.5,247.4 62.1,77.1 121,146.9 176.5,208.6 27.7,30.8 54.5,59.7 80.4,86.5 25.1,27.3 48.7,52.9 71.8,76.1 45.8,46.5 88,84.3 125.8,113 75.8,57.3 134.5,77.8 171.8,56.3"
         style="fill:#2e745b;fill-opacity:1;fill-rule:nonzero;stroke:none"
         id="path54" /><path
         d="m 19938.1,12721.5 c 37.9,-20.5 54.9,-75.1 53.6,-156.1 -0.1,-20.3 -2.2,-42 -4,-65.8 -1.6,-24 -4.3,-49.7 -8,-76.8 -3.5,-27.1 -8.6,-55.6 -13.9,-85.9 -4.4,-30.7 -9.7,-62.8 -16,-96.4 -3.1,-16.7 -6.5,-33.9 -10.1,-51.3 -3.5,-17.5 -6.1,-35.9 -9.5,-54.3 -6.5,-37 -14.1,-75.2 -22.1,-115 -6.6,-40.3 -14,-81.9 -22.2,-124.8 -2,-10.8 -4.4,-21.5 -6.2,-32.5 -1.7,-11 -3.4,-22.2 -5.2,-33.4 -3.7,-22.3 -7.5,-45.1 -11.4,-68.2 -30.5,-184.9 -59.8,-394.5 -81.3,-627.1 -11.4,-116.1 -21.7,-239.8 -33.1,-370 -2.3,-32.7 -4.6,-65.7 -6.9,-99.1 -2.2,-33.4 -5.8,-67.2 -7.1,-101.5 -3.4,-68.5 -8.6,-138.6 -10.5,-210.2 -6.8,-143.2 -7.6,-292.3 -6.2,-446.9 2,-154.3 9.3,-313.4 20.2,-476 12.2,-162.4 28.7,-328.1 50.3,-495.4 22.3,-167.1 49.1,-335.9 80.9,-504.4 32.1,-168.5 68.6,-336.9 109.6,-503.7 41.2,-166.7 86.5,-331.8 135.9,-493.9 -49.4,162.2 -103.4,324.5 -160,486.8 -56.4,162.3 -115,324.5 -173.9,486.6 -58.5,162.1 -116.7,324.2 -173,485.9 -55.7,161.9 -108.9,323.5 -158.1,484.3 -47.8,161.1 -92.5,321.1 -129.7,479.7 -36.5,158.5 -68.7,315.4 -90.1,469.3 -12.1,76.7 -19.8,152.8 -27.6,227.5 -4.4,37.4 -6,74.6 -8.7,111.4 -2.3,36.8 -4.9,73.3 -6.2,109.4 -4.4,144.5 -2.5,283.4 10.3,414.1 24,261.4 73.5,498.5 137.4,701.7 8.3,25.3 16.4,50.2 24.5,74.7 4.1,12.2 8.2,24.3 12.2,36.3 4.2,11.9 9,23.6 13.4,35.2 18.2,46.4 36.2,90.8 54,133.1 19.3,41.9 38.9,81.5 57.9,119.1 9.6,18.7 18.6,37.1 28.6,54.6 10.1,17.4 20.1,34.3 30,50.7 19.9,32.6 39.2,63.1 58,91.3 19.7,27.8 39.6,53.1 58.4,76.3 18.9,23.1 37.1,44 54.6,62.5 17.7,18.5 36,34 52.6,47.6 67.4,54.1 120.8,71.1 158.6,50.6"
         style="fill:#2e745b;fill-opacity:1;fill-rule:nonzero;stroke:none"
         id="path56" /><path
         d="m 21646.8,12114.9 c 43,-1.6 80.7,-44.1 112.1,-124 15.7,-40 29.8,-89.3 42.3,-147.4 6.2,-29 12.2,-60.3 17.2,-93.6 4.4,-33.3 8.2,-68.7 11.5,-106.2 6.6,-75 11.3,-158.2 13.6,-248.9 -0.4,-90.4 -3.2,-188.4 -8.5,-293.3 -1.5,-26.2 -2.2,-53 -4.9,-79.9 -2.6,-26.9 -5.2,-54.3 -7.9,-82.1 -5.6,-55.5 -11.8,-112.7 -18.8,-171.4 -3.5,-29.3 -6.9,-59.1 -11.1,-89.1 -4.8,-29.9 -9.7,-60.2 -14.7,-90.9 -10.2,-61.3 -21.2,-124 -32.8,-188.1 -10.8,-64.2 -26.9,-129.4 -43.3,-196.2 -16.5,-66.7 -34.4,-135 -53.5,-204.6 -20.4,-69.2 -43.4,-139.4 -66.7,-211 -23.7,-71.4 -47.1,-144.3 -75.8,-217.1 -27.6,-73 -56.2,-147 -85.4,-221.9 -14.1,-37.5 -30.9,-74.6 -46.9,-112.1 -16.2,-37.4 -32.5,-75.1 -48.9,-113 -16.4,-37.8 -33,-75.8 -49.7,-114 -8.1,-19.2 -17.2,-38.1 -26.2,-57 -9,-19 -18,-38 -27.1,-57.1 -36.2,-75.9 -72.8,-152.7 -109.7,-230.1 -154,-306.6 -323.2,-616.1 -498.9,-922.4 -178.4,-305 -362.3,-606.7 -540,-904.5 177.8,297.9 329.9,618.1 457.4,944.1 124.8,327.5 224.3,660.6 306.4,984.1 18.7,81.3 37.3,161.9 55.7,241.7 4.6,19.8 9.1,39.7 13.7,59.4 4.6,19.8 9.2,39.4 12.9,59.3 7.9,39.6 15.7,79 23.5,118.1 7.9,39 15.7,77.8 23.4,116.2 7.6,38.5 16.2,76.4 22.3,114.7 13.3,76.2 26.6,151.1 40.1,224.4 14.5,73.1 24.9,145.9 36.8,216.6 11.6,70.8 24.3,139.9 36.2,207.4 10.4,67.9 21.4,134 33,198.3 11.4,64.2 24.6,126.4 34.8,187.3 11,60.7 22.3,120.1 33.7,177.9 5.9,28.9 11.7,57.5 17.4,85.6 5.1,28.3 10.2,56.3 15.1,83.9 10.1,55.1 20.4,108.7 30.9,160.8 5.4,26 10.7,51.6 15.9,76.8 5.6,25.2 9.4,50.2 14.3,74.7 18.5,98.1 37.9,189.6 58,274 17.5,84.8 35.6,162.5 54.6,232.6 9.5,35 19.1,68.2 28.9,99.4 9.1,31.2 17.9,60.5 27.2,87.7 18.3,54.5 37.5,100.7 57.3,138.1 39.5,74.8 81.5,114.3 124.6,112.8"
         style="fill:#2e745b;fill-opacity:1;fill-rule:nonzero;stroke:none"
         id="path58" /><path
         d="m 22035.6,1157.3 h -3415.7 l 516.8,4760.3 h 2382 l 516.9,-4760.3"
         style="fill:#9197a1;fill-opacity:1;fill-rule:nonzero;stroke:none"
         id="path60" /><path
         d="m 20648.1,1729.7 c -162.6,73.3 -314.8,173.7 -455.9,317.5 -298.3,304 -475.1,704.1 -576,1113.1 -65.1,264.1 -100.3,535 -117,806.2 -12.1,195.5 -72.7,1951.1 -65,1951.1 h -297.5 l -516.8,-4760.3 h 3415.7 l -39.2,361.2 c 0,0 -315.3,-21.3 -536.7,7.4 -293.5,38 -564.1,92.2 -811.6,203.8"
         style="fill:#7e838d;fill-opacity:1;fill-rule:nonzero;stroke:none"
         id="path62" /><path
         d="m 16950.9,999.5 h 239.4 l -158.5,2115.6 h -792.2 l 711.3,-2115.6"
         style="fill:#c9ccdb;fill-opacity:1;fill-rule:nonzero;stroke:none"
         id="path64" /><path
         d="m 16950.9,999.5 h 98.7 l -413.9,2115.6 h -396.1 l 711.3,-2115.6"
         style="fill:#9197a1;fill-opacity:1;fill-rule:nonzero;stroke:none"
         id="path66" /><path
         d="m 14685.3,1197.6 h 217 l -143.6,1917.5 h -718 l 644.6,-1917.5"
         style="fill:#c9ccdb;fill-opacity:1;fill-rule:nonzero;stroke:none"
         id="path68" /><path
         d="m 14685.3,1197.6 h 89.5 l -375.1,1917.5 h -359 l 644.6,-1917.5"
         style="fill:#9197a1;fill-opacity:1;fill-rule:nonzero;stroke:none"
         id="path70" /><path
         d="m 7952.03,999.5 h -239.44 l 158.5,2115.6 h 792.17 L 7952.03,999.5"
         style="fill:#c9ccdb;fill-opacity:1;fill-rule:nonzero;stroke:none"
         id="path72" /><path
         d="m 7952.03,999.5 h -98.69 l 413.83,2115.6 h 396.09 L 7952.03,999.5"
         style="fill:#9197a1;fill-opacity:1;fill-rule:nonzero;stroke:none"
         id="path74" /><path
         d="m 10217.6,1197.6 h -217 l 143.6,1917.5 h 718 l -644.6,-1917.5"
         style="fill:#c9ccdb;fill-opacity:1;fill-rule:nonzero;stroke:none"
         id="path76" /><path
         d="m 10217.6,1197.6 h -89.5 l 375.1,1917.5 h 359 l -644.6,-1917.5"
         style="fill:#9197a1;fill-opacity:1;fill-rule:nonzero;stroke:none"
         id="path78" /><path
         d="m 17553.5,5708.1 c -2547.3,366.6 -5131.3,434.3 -7699.51,201.1 -443.91,-39.5 -886.14,286.1 -983.46,736.5 -462.36,2213.7 -924.71,4427.4 -1387.07,6641 -97.28,450.1 324.54,1096.2 939.6,1181.7 3515.94,487.4 7079.74,562.2 10618.84,222.3 619.2,-58.8 1041.9,-706.9 940.4,-1185.8 -481.8,-2350.6 -963.7,-4701.2 -1445.5,-7051.7 -101.5,-479.3 -543.2,-808.8 -983.3,-745.1"
         style="fill:#b87d1c;fill-opacity:1;fill-rule:nonzero;stroke:none"
         id="path80" /><path
         d="m 16637.3,7346 c -2280.7,322.5 -4593.5,377.4 -6891.16,163.1 -397.09,-36.3 -794.78,254.3 -884.43,657.5 -376.09,1749.3 -752.2,3498.6 -1128.29,5247.9 -89.63,402.8 277.66,806 818.18,880.2 3088.9,423.1 6219.1,483.8 9326.8,180.3 543.9,-52.5 911.7,-459.2 818.3,-887.8 -391.5,-1857.5 -783,-3715 -1174.5,-5572.6 -93.4,-428.9 -490.9,-724.6 -884.9,-668.6"
         style="fill:#f9a726;fill-opacity:1;fill-rule:nonzero;stroke:none"
         id="path82" /><path
         d="m 6348.94,5091.2 v 3821.1 c 0,452.5 370.22,822.7 822.7,822.7 h 992.54 c 452.48,0 822.7,-370.2 822.7,-822.7 V 5091.2 c 0,-452.5 -370.22,-822.7 -822.7,-822.7 h -992.54 c -452.48,0 -822.7,370.2 -822.7,822.7"
         style="fill:#b87d1c;fill-opacity:1;fill-rule:nonzero;stroke:none"
         id="path84" /><path
         d="m 5536.37,5091.2 v 3821.1 c 0,452.5 370.21,822.7 822.69,822.7 h 992.55 c 452.48,0 822.69,-370.2 822.69,-822.7 V 5091.2 c 0,-452.5 -370.21,-822.7 -822.69,-822.7 h -992.55 c -452.48,0 -822.69,370.2 -822.69,822.7"
         style="fill:#f9a726;fill-opacity:1;fill-rule:nonzero;stroke:none"
         id="path86" /><path
         d="M 16584.5,5453.6 H 8486.23 c -469.84,0 -746.72,325.6 -615.3,723.6 0,0 1158.92,1548.7 2157.17,1511 l 8182.3,-2.1 c 622.2,0.7 662.6,-323.6 531.2,-721.6 0,0 -640.7,-789.7 -947.3,-1108.6 -252.2,-262.5 -740,-402.3 -1209.8,-402.3"
         style="fill:#f9b948;fill-opacity:1;fill-rule:nonzero;stroke:none"
         id="path88" /><path
         d="m 18345.4,5277 -1095.2,-810.6 c 0,0 -691.1,1667.4 -353.4,2036.7 182.8,199.9 1455.1,1176.8 1455.1,1176.8 573,8.9 566.7,-237.6 566.7,-635.6 l 33.3,-721.6 c 0,-398 -52.9,-558.8 -606.5,-1045.7"
         style="fill:#b87d1c;fill-opacity:1;fill-rule:nonzero;stroke:none"
         id="path90" /><path
         d="M 16733.1,4268.5 H 8498.82 c -432.43,0 -786.23,353.8 -786.23,786.2 v 662.2 c 0,432.4 353.8,786.2 786.23,786.2 h 8234.28 c 432.4,0 786.2,-353.8 786.2,-786.2 v -662.2 c 0,-432.4 -353.8,-786.2 -786.2,-786.2"
         style="fill:#f9a726;fill-opacity:1;fill-rule:nonzero;stroke:none"
         id="path92" /><path
         d="M 17602.5,2908.7 H 7073.36 c -239,0 -434.54,195.6 -434.54,434.6 v 1593 c 0,239 195.54,434.6 434.54,434.6 H 17602.5 c 239,0 434.6,-195.6 434.6,-434.6 v -1593 c 0,-239 -195.6,-434.6 -434.6,-434.6"
         style="fill:#f9a726;fill-opacity:1;fill-rule:nonzero;stroke:none"
         id="path94" /><g
         id="g96"><g
           id="g98"
           clip-path="url(#clipPath102)"><path
             d="m 9753.89,7661.7 h 5908.71 v 27.1016 H 9753.89 Z"
             style="fill:#be811e;fill-opacity:1;fill-rule:nonzero;stroke:none"
             id="path104" /></g></g><path
         d="m 15518.3,6503.1 h -2096.2 c -193.9,226.3 -418.1,495.7 -619.3,690.4 -354.5,-177.3 -928.6,-460.2 -1396.9,-690.4 H 8867.1 c 28.21,248 51.91,496.4 68.91,745.5 257.64,192.5 539.26,351.7 817.88,413.1 h 0.15 c 0.59,0.2 1.16,0.3 1.75,0.4 0.12,0 0.28,0.1 0.4,0.1 0.61,0.1 1.2,0.3 1.81,0.4 0.19,0 0.42,0.1 0.6,0.1 0.39,0.1 0.8,0.2 1.19,0.3 0.31,0.1 0.6,0.1 0.91,0.2 0.24,0 0.53,0.1 0.78,0.2 0.75,0.1 1.46,0.3 2.21,0.4 0.06,0 0.11,0 0.18,0.1 0.44,0.1 0.89,0.1 1.32,0.2 0.12,0.1 0.2,0.1 0.31,0.1 75.92,16 151.58,24.6 226.43,24.6 12.07,0 24.07,-0.2 36.17,-0.6 l 5634.5,-1.4 c -40.7,-395.7 -89.5,-790.3 -144.3,-1183.7"
         style="fill:#bf8e3e;fill-opacity:1;fill-rule:nonzero;stroke:none"
         id="path106" /><path
         d="m 15344.8,5370.9 h -1752 c 38.6,273.1 75.3,546.7 108.9,821.1 -78.7,78.7 -174.8,188.6 -279.6,311.1 h 2096.2 c -52.7,-378.3 -111.1,-755.5 -173.5,-1132.2 m -4648.9,0 h -1981 c 56,378.2 109.31,754.9 152.2,1132.2 h 2538.8 c -430,-211.4 -770.8,-378.3 -770.8,-378.3 l 60.8,-753.9"
         style="fill:#be811e;fill-opacity:1;fill-rule:nonzero;stroke:none"
         id="path108" /><path
         d="m 14895.3,2908.7 h -1674 c 120.6,820 255,1638.6 371.5,2462.2 h 1752 C 15208.5,4548.2 15053,3728.5 14895.3,2908.7 m -4778.6,0 H 8593.88 8324.29 c 82.84,396.8 151.56,797.3 207.36,1213.3 57.58,420 122.03,835.4 183.25,1248.9 h 1981 l 54,-670.3 c -173.7,-396.1 -633.2,-1791.9 -633.2,-1791.9"
         style="fill:#be811e;fill-opacity:1;fill-rule:nonzero;stroke:none"
         id="path110" /><path
         d="m 7013.61,1425.4 c 0,0 400.15,249.4 586.83,384.8 l 514.64,575.2 672.57,58.5 c 0,0 -208.1,-814.7 -208.04,-896.7 0.22,-294.6 -180.93,-574.098 -613.74,-539.9 -432.81,34.2 -952.26,418.1 -952.26,418.1"
         style="fill:#ccccc9;fill-opacity:1;fill-rule:nonzero;stroke:none"
         id="path112" /><path
         d="m 6099.22,903.102 c 85.11,112.798 376.59,191.098 428.78,215.698 158.01,74.4 432.09,500.2 432.09,500.2 309.36,167.3 465.51,166.7 773.29,-8.1 142,-80.7 248.99,-265.7 300.18,-377.9 116.94,83.8 386.03,219.1 443.37,324.5 83.75,153.9 112.62,199 203.44,82.9 21.46,-27.4 35.7,-1195.9 35.7,-1195.9 L 6183.58,411.301 c 0,0 -222.14,309.101 -84.36,491.801"
         style="fill:#1f1e27;fill-opacity:1;fill-rule:nonzero;stroke:none"
         id="path114" /><path
         d="m 12810.8,1422 c 0,0 352,248.8 516.2,383.9 l 452.4,574.4 532.3,-2.5 c 0,0 -122.1,-754.4 -121.9,-836.5 0.6,-294.6 -158.5,-573.698 -539.7,-538.9 -381.2,34.9 -839.3,419.6 -839.3,419.6"
         style="fill:#ccccc9;fill-opacity:1;fill-rule:nonzero;stroke:none"
         id="path116" /><path
         d="m 12006.3,901.102 c 74.8,112.698 331.4,190.498 377.3,214.998 139.1,74.2 379.8,499.6 379.8,499.6 272.2,166.7 409.7,166 681,-9.4 125.2,-80.9 219.7,-266 265,-378.3 102.8,83.6 339.6,218.4 389.9,323.8 73.6,153.8 98.9,198.8 179.1,82.6 18.9,-27.5 33.3,-1195.9 33.3,-1195.9 l -2230.3,-29.297 c 0,0 -196.1,309.5 -75.1,491.899"
         style="fill:#1f1e27;fill-opacity:1;fill-rule:nonzero;stroke:none"
         id="path118" /><path
         d="m 14583.2,9573.2 c 668.1,-934.3 1077.3,-910.2 1264,-1629 68.5,-263.5 -337.1,-547 -402.3,-1111.2 -72.3,-625.3 282.6,-1290.9 -1063.4,-5047.9 h -1262.1 c 393.1,2837.4 397.9,5112.5 393.1,5355.8 -357.6,211.5 -510.2,435.9 -867.9,647.4 -358.2,32.8 -1875.6,-551.5 -2066.4,-715.1 -216.6,-185.6 -116.4,-1444.4 -230.4,-1704.7 -596.94,-1363 -1602.05,-3479 -1602.05,-3479 l -1170.95,4.9 c 0,0 949.67,5099.8 1173.88,5700.1 205.05,548.9 1132.1,953 1842.22,1144.2 103.7,274.6 147.8,559.8 251.5,834.5 h 3740.8"
         style="fill:#282735;fill-opacity:1;fill-rule:nonzero;stroke:none"
         id="path120" /><path
         d="m 15847.2,7944.2 c -186.7,718.8 -595.9,694.7 -1264,1629 h -3740.8 c -103.7,-274.7 -147.8,-559.9 -251.5,-834.5 -531.6,-143.1 -1184.67,-405.5 -1565.51,-758.7 272.8,-12 544.06,-47.8 819,-120.4 189.81,-51.1 379.71,-51.1 562.21,-124.1 131.4,-51.1 204.4,-175.3 167.9,-314 -36.5,-160.6 -211.7,-248.2 -321.2,-372.3 -36.5,-43.9 -87.7,-73.1 -109.6,-124.2 -175.19,-394.2 -138.7,-825 -153.29,-1248.5 0,-102.2 -29.2,-211.8 -65.71,-314 -240.95,-679 -598.72,-1292.3 -861.57,-1971.4 -182.53,-489.2 -452.69,-919.9 -576.81,-1445.6 -5.34,-18.7 -11.67,-36.9 -18.56,-54.8 l 277.99,-1.2 c 0,0 1005.11,2116 1602.05,3479 114,260.3 13.8,1519.1 230.4,1704.7 190.8,163.6 1708.2,747.9 2066.4,715.1 357.7,-211.5 510.3,-435.9 867.9,-647.4 4.8,-243.3 0,-2518.4 -393.1,-5355.8 h 447 c 137,1029.3 271.9,4512 344.9,5110.7 7.3,51.1 7.3,109.5 -7.3,160.6 -14.6,80.4 -377.3,446.4 -179.8,763.5 197.5,317.1 1618.2,441.3 1954,412.1 65.7,0 65.7,-124.1 80.3,-204.5 14.6,-65.7 7.3,-131.4 21.9,-204.4 13.8,-55.2 21.1,-116.9 3.4,-166.6 54.9,105.2 86.9,197.6 63.4,287.7"
         style="fill:#1c1b22;fill-opacity:1;fill-rule:nonzero;stroke:none"
         id="path122" /><path
         d="m 16185.9,17239 c 12.4,-46.6 22.4,-93.6 30.3,-140.7 131.9,-788.4 -341.7,-1637 -1081.8,-1938.7 -382.5,-156 -805.6,-173.9 -1218.6,-176.3 -493.8,-2.7 -996.3,15.4 -1464.3,173.1 -468,157.8 -1017.7,136.4 -1233.2,482.6 -170.3,273.7 -399.5,716 -234.4,1089.5 128.1,289.7 505.4,673.6 819.7,712.6 1050.8,130.6 2216.4,621.1 3275.2,612.6 248.9,-2 506.4,-49 709.3,-193.2 204.9,-145.6 332.9,-376.5 397.8,-621.5"
         style="fill:#282735;fill-opacity:1;fill-rule:nonzero;stroke:none"
         id="path124" /><path
         d="m 14436.9,16233.4 c -198.3,-695.1 -883.8,-1338.8 -1575.3,-1338.8 -691.6,0 -1354.2,663.5 -1583.1,1342.5 -283.5,840.9 809.4,222.8 1610.4,678.6 1088.7,619.7 1750.1,25.9 1548,-682.3"
         style="fill:#19181c;fill-opacity:1;fill-rule:nonzero;stroke:none"
         id="path126" /><path
         d="m 14868.8,15596.6 c -426.4,100.1 -744.4,477.8 -890.6,890.7 -146.2,412.9 -251.8,2603.3 -251.8,2603.3 h -1334.5 c 0,0 -105.7,-2190.4 -251.9,-2603.3 -146.2,-412.9 -464.2,-790.6 -890.6,-890.7 0,0 775.8,-607.5 1809.7,-607.5 1033.9,0 1809.7,607.5 1809.7,607.5"
         style="fill:#f8a6a5;fill-opacity:1;fill-rule:nonzero;stroke:none"
         id="path128" /><path
         d="m 12722.3,16557.7 c 441.8,90.1 824.1,324 1141.6,630.6 -83.8,788.9 -137.5,1902.3 -137.5,1902.3 h -1334.5 c 0,0 -82.9,-1717.3 -203.4,-2397.3 154.8,-121.7 357,-171 533.8,-135.6"
         style="fill:#f38889;fill-opacity:1;fill-rule:nonzero;stroke:none"
         id="path130" /><path
         d="m 10416.3,8659.5 c 217,1648.9 127.6,2294.7 0,3954.1 -513.93,3023.9 191.4,3377.5 862.2,3623.5 107.6,-619.1 380.4,-1004.9 1182.3,-972.5 744.4,30.1 1514,537.6 2012.4,1090.4 652.4,-157.5 1487,-357.9 2097.6,-637.2 -282.8,-863.8 -445.9,-1813 -909.7,-2594.7 -82.6,-1844.1 -253.6,-2458 191.4,-4249.5 -253.5,-78.3 -3780.4,-886.6 -5436.2,-214.1"
         style="fill:#282735;fill-opacity:1;fill-rule:nonzero;stroke:none"
         id="path132" /><path
         d="m 15576.3,13364.6 c -34.4,-60.1 -83.8,-1829.9 -292.1,-1929.8 -208.3,-99.9 -3434.6,14 -4534.3,22.6 -17.2,0 -296.8,2065.1 -491.9,2415.9 24.8,-358.2 75.8,-774.5 158.3,-1259.7 127.6,-1659.4 217,-2305.2 0,-3954.1 1655.8,-672.5 5182.7,135.8 5436.2,214.1 -445,1791.5 -274,2405.4 -191.4,4249.5 149.3,251.7 267.4,520.8 368.4,798.7 -36,-24.6 -410.3,-479.9 -453.2,-557.2"
         style="fill:#1c1b22;fill-opacity:1;fill-rule:nonzero;stroke:none"
         id="path134" /><path
         d="m 8269.35,10905.1 c 185.13,579.4 802.31,2200.1 1156.97,3198.3 150.2,422.8 321.31,875 668.58,1131 577.8,425.9 1523.7,47.5 1433.4,-845.6 -427.5,-1195 -1386.6,-3276.5 -1733.76,-3808.8 -320.96,-492.1 -1806.17,-554.2 -1525.19,325.1"
         style="fill:#282735;fill-opacity:1;fill-rule:nonzero;stroke:none"
         id="path136" /><path
         d="m 9395,11034 c -373.17,205.2 -1073.71,-38.8 -1078.12,-304 -4.42,-265.1 300.45,-597.6 776.98,-359.6 178.45,89.2 952.34,244.9 824.42,372.9 -58.68,58.7 -260.14,146 -523.28,290.7"
         style="fill:#f8a6a5;fill-opacity:1;fill-rule:nonzero;stroke:none"
         id="path138" /><path
         d="m 9358.31,11007.6 c 0,0 566.94,-187.7 655.19,-239.4 88.2,-51.8 434,-755.4 525.8,-924 91.8,-168.5 -112.6,-327.7 -237.7,-107.9 -125.1,219.7 -453.34,735.6 -453.34,735.6 0,0 -412.9,68.7 -518.12,87.4 -105.21,18.7 -198.85,434.4 28.17,448.3"
         style="fill:#f8a6a5;fill-opacity:1;fill-rule:nonzero;stroke:none"
         id="path140" /><path
         d="m 9382.84,10837.5 491.35,-445 c 0,0 261.31,-512.5 328.71,-669.1 67.5,-156.5 -130.4,-262.3 -223.54,-80.5 -93.1,181.7 -352.63,540.2 -352.63,540.2 0,0 -523.1,386.5 -586.96,405.9 -63.86,19.4 343.07,248.5 343.07,248.5"
         style="fill:#f8a6a5;fill-opacity:1;fill-rule:nonzero;stroke:none"
         id="path142" /><path
         d="m 8938.03,10750.1 477.69,-300.9 c 0,0 270.8,-503.2 341.14,-657.3 70.35,-154.1 -126.36,-265.1 -222.84,-86.7 -96.48,178.5 -362.89,528.3 -362.89,528.3 0,0 -463.22,269 -527.6,286.5 -64.38,17.5 294.5,230.1 294.5,230.1"
         style="fill:#f8a6a5;fill-opacity:1;fill-rule:nonzero;stroke:none"
         id="path144" /><path
         d="m 8743.02,10751.3 381.59,-301.1 c 0,0 180.2,-459.2 224.48,-598.7 44.27,-139.6 -138.37,-219.3 -202.66,-56.5 -64.3,162.9 -257.35,488.7 -257.35,488.7 0,0 -372.5,272.3 -426.42,292.9 -53.93,20.6 280.36,174.7 280.36,174.7"
         style="fill:#f8a6a5;fill-opacity:1;fill-rule:nonzero;stroke:none"
         id="path146" /><path
         d="m 11122.1,15843.4 c 37.5,-272.6 194.5,-522.7 416.8,-683.2 62.7,-45.3 130.4,-82.3 201.8,-111.7 25,-10.2 35.8,30.3 11.2,40.4 -242.7,99.8 -439,306 -533.6,550.1 -26.9,69.4 -45.6,141.8 -55.8,215.6 -1.5,11.3 -15.9,17.2 -25.8,14.6 -12.1,-3.2 -16.1,-14.6 -14.6,-25.8"
         style="fill:#1f1e27;fill-opacity:1;fill-rule:nonzero;stroke:none"
         id="path148" /><path
         d="m 12140.6,14884.3 c 249.9,-7.2 500.1,-0.3 749.1,20.9 247.7,21 494.3,55.7 738.1,103.9 245.3,48.4 487.8,110.5 726.1,185.8 237,74.9 469.8,162.9 697.2,263.4 228.5,101 451.5,214.9 667.1,341.2 26.9,15.7 53.6,31.6 80.2,47.7 23.1,14 2.1,50.2 -21.1,36.2 -212.1,-128.2 -431.3,-244.4 -656.5,-347.9 -225.4,-103.7 -456.7,-194.6 -692.3,-272.5 -235.2,-77.8 -474.8,-142.6 -717.2,-194.1 -242.7,-51.5 -488.2,-89.7 -735.1,-113.9 -246.6,-24.2 -494.5,-34.6 -742.3,-30.9 -31.1,0.5 -62.2,1.2 -93.3,2.1 -27,0.7 -26.9,-41.2 0,-41.9"
         style="fill:#1f1e27;fill-opacity:1;fill-rule:nonzero;stroke:none"
         id="path150" /><path
         d="m 14514.9,16175.7 c -77.3,-509 -198.1,-1011.2 -360.7,-1499.6 -162.8,-488.8 -367.2,-963.5 -610.6,-1417.6 -136.2,-253.9 -284.6,-501.3 -444.5,-741 -20.5,-30.7 29,-59.4 49.3,-28.9 287.2,430.7 537.1,886 746.4,1359.4 208.1,470.5 376.9,958.3 502.8,1457.2 71.3,282.1 128.7,567.7 172.4,855.3 5.4,36 -49.6,51.5 -55.1,15.2"
         style="fill:#c53949;fill-opacity:1;fill-rule:nonzero;stroke:none"
         id="path152" /><path
         d="m 13252.9,12510.4 c 0,-57.1 -49.5,-103.3 -110.6,-103.3 -61.1,0 -110.7,46.2 -110.7,103.3 0,57 49.6,103.2 110.7,103.2 61.1,0 110.6,-46.2 110.6,-103.2"
         style="fill:#ccccc9;fill-opacity:1;fill-rule:nonzero;stroke:none"
         id="path154" /><path
         d="m 13540.6,13004.6 c 0,-57.1 -49.5,-103.3 -110.6,-103.3 -61.1,0 -110.7,46.2 -110.7,103.3 0,57 49.6,103.2 110.7,103.2 61.1,0 110.6,-46.2 110.6,-103.2"
         style="fill:#ccccc9;fill-opacity:1;fill-rule:nonzero;stroke:none"
         id="path156" /><path
         d="m 11172.5,16178.4 c -85.5,-507.7 -111.3,-835 -109.1,-1349.8 2.1,-515.2 48.2,-1030 137.9,-1537.3 50.2,-283.8 114,-565 191.1,-842.7 9.9,-35.6 -46.1,-47.4 -55.9,-12 -138.5,498.7 -233.9,1009.2 -285.1,1524.3 -50.9,512 -59.1,1028.1 -23.1,1541.4 20.3,290.2 54.8,391.9 103,678.9 6.1,35.9 41.2,-2.8 41.2,-2.8"
         style="fill:#c53949;fill-opacity:1;fill-rule:nonzero;stroke:none"
         id="path158" /><path
         d="m 11244,12489.8 c -17.8,-54.2 14.9,-113.6 72.9,-132.6 58.1,-19.1 119.6,9.4 137.4,63.6 17.8,54.2 -14.9,113.6 -72.9,132.6 -58.1,19.1 -119.6,-9.4 -137.4,-63.6"
         style="fill:#ccccc9;fill-opacity:1;fill-rule:nonzero;stroke:none"
         id="path160" /><path
         d="m 11124.9,13049.1 c -17.8,-54.2 14.8,-113.6 72.9,-132.6 58,-19.1 119.5,9.4 137.3,63.6 17.8,54.2 -14.8,113.5 -72.9,132.6 -58.1,19.1 -119.5,-9.4 -137.3,-63.6"
         style="fill:#ccccc9;fill-opacity:1;fill-rule:nonzero;stroke:none"
         id="path162" /><path
         d="m 14072.8,18714.9 c 187.4,-1329.6 -1330.3,-2368.2 -1897.7,-2349.4 -447.6,14.9 -1324.3,357.6 -1826.6,1617.1 -748.86,1877.7 -381.32,2814.7 1130.9,3212.5 1512.1,397.8 2300.9,-405.2 2593.4,-2480.2"
         style="fill:#f8a6a5;fill-opacity:1;fill-rule:nonzero;stroke:none"
         id="path164" /><path
         d="m 13253.1,18429.5 c -3.2,-52 -45.4,-98.7 -115.6,-138.8 -17.5,-10 -36.8,-19.7 -57.8,-28.8 -20.9,-9.6 -43.5,-19.8 -67.6,-29.1 -48.2,-19.2 -102.3,-34.7 -161.3,-54.2 -29.5,-9.1 -60.3,-17.8 -92.2,-26.1 -31.9,-8.4 -64.8,-18.9 -98.8,-27.6 -17,-4.3 -34.3,-8.6 -51.8,-13.1 -8.8,-2.2 -17.6,-4.1 -26.5,-6.4 -8.9,-2.5 -17.8,-5 -26.7,-7.5 -35.9,-9.8 -72.8,-19.2 -110.5,-28.1 -150.6,-39.5 -314.1,-80.4 -485.2,-125.9 -170.8,-47.1 -332.6,-94.3 -482.5,-136.2 -37.1,-11.4 -73.7,-21.9 -109.6,-31.6 -9,-2.3 -18,-4.7 -26.8,-7 -8.9,-2.5 -17.5,-5.3 -26.2,-7.8 -17.4,-5 -34.5,-10 -51.3,-14.8 -33.8,-9.7 -67.5,-17.3 -99.3,-26.1 -31.7,-9 -62.7,-17 -92.7,-24 -60.8,-13 -115.3,-27 -166.6,-34.7 -25.4,-4.1 -50.1,-6.7 -73,-9 -22.7,-2.6 -44.2,-4.1 -64.4,-4.3 -80.8,-0.7 -140.8,18.3 -169.7,61.6 -28.8,43.2 -23.6,106.9 13.3,187 9.2,20 20.4,41 33.6,62.9 13.3,21.6 29.1,43.2 46.5,66 35.2,45 77,95 128.5,142.1 25.4,24.1 52.7,48.7 81.6,73.6 29,24.8 60.8,47.8 93.6,72.3 16.5,12 33.3,24.1 50.6,36.3 8.6,6 17.3,12.3 26.2,18.2 9,5.6 18.1,11.3 27.3,17.1 36.7,22.8 74.9,45.8 114.6,68.7 159.9,87.9 345.7,166.3 548.5,222 203.2,54.3 403.1,80.4 585.4,85.2 45.8,0.2 90.3,-0.3 133.6,-1.5 10.8,-0.3 21.5,-0.7 32.1,-1 10.7,-0.6 21.3,-1.6 31.8,-2.5 21,-1.8 41.7,-3.7 62,-5.8 40.6,-4.6 79.6,-8.4 117.1,-15.2 37.6,-6.9 73.5,-14.4 107.6,-22.3 68.2,-14.7 129.4,-36.8 182.5,-57.9 26.5,-10.9 51,-21.6 73.4,-33.5 22.4,-12.3 42.6,-24.8 60.7,-37.4 72.2,-50.5 108.7,-102.9 105.6,-154.8"
         style="fill:#f38889;fill-opacity:1;fill-rule:nonzero;stroke:none"
         id="path166" /><path
         d="m 11904.1,17902.5 c 0.8,-4.8 -2.5,-9.8 -10.2,-15.2 -3.9,-2.5 -8.9,-5.6 -15.1,-7.9 -6.1,-2 -13.4,-4 -21.9,-5.8 -33.6,-6.3 -86.7,0.4 -140.3,31.7 -53.5,30.8 -105.8,84.6 -140.4,158.9 -34.3,75.6 -44,160.5 -44,244.3 0.3,83.4 8.7,158.3 10.6,222.2 2.2,64.1 -1.2,120.5 -9.3,166.4 -8.2,45.8 -20.4,81.6 -30.2,107.4 -2.6,6.4 -4.7,12.3 -6.4,17.8 -1.7,5.4 -3.4,9.9 -4.3,14.2 -1.8,8.4 -1.4,14.7 1.9,18.2 3.4,3.6 9.4,4.2 18.3,1.6 4.4,-1.3 9.7,-3.2 15.3,-6.2 5.5,-3.2 11.6,-7.2 18.4,-12 26.3,-19.6 57.7,-57.4 81.6,-110.7 23.9,-53.2 39.1,-120.5 44.2,-193.9 5.1,-73.7 0.6,-149.8 0.4,-225.2 -0.1,-37.5 1.3,-72.9 5,-105.8 3.5,-32.6 9.9,-64.1 18.4,-89.5 18,-53 48.3,-97.7 79.1,-127.5 30.8,-30.1 61.9,-47.3 86.1,-57.3 6.1,-2.3 11.6,-4.6 16.7,-7 5,-2.2 9.4,-3.6 13.2,-5.7 7.4,-3.9 12.2,-8.2 12.9,-13"
         style="fill:#de586b;fill-opacity:1;fill-rule:nonzero;stroke:none"
         id="path168" /><path
         d="m 12869.3,19036.2 c -122.8,206.1 -368.8,315.5 -575.4,267.2 -200,-46.8 -358.3,-240.4 -382.6,-469.2 120.4,-224.1 379.7,-353.9 592.1,-284 305.6,100.5 366.6,484.7 365.9,486"
         style="fill:#ffffff;fill-opacity:1;fill-rule:nonzero;stroke:none"
         id="path170" /><path
         d="m 12097.4,18758.3 c 42.5,-161.8 208.2,-258.4 369.9,-215.8 161.8,42.5 258.5,208.2 215.9,369.9 -42.6,161.8 -208.2,258.4 -370,215.9 -161.7,-42.6 -258.4,-208.2 -215.8,-370"
         style="fill:#34334b;fill-opacity:1;fill-rule:nonzero;stroke:none"
         id="path172" /><path
         d="m 11908.7,18815.1 c 23.6,168.6 134.2,319.4 284.3,398.3 151,79.5 332.3,72.9 482.5,-5.5 83.4,-43.5 142.8,-101 192.3,-181.2 5.6,9.6 0.5,49.4 -4.9,58.1 -88.2,142.6 -246.6,235.4 -413.1,249.3 -171.3,14.4 -336.6,-63.1 -444.2,-195.5 -60.3,-74.2 -100.8,-163.5 -114,-258.3 -1.3,-8.9 5.9,-24 8.2,-32.7 2,-7.7 4.1,-15.3 6.2,-23 0.6,-2.4 3,-7.2 2.7,-9.5"
         style="fill:#34334b;fill-opacity:1;fill-rule:nonzero;stroke:none"
         id="path174" /><path
         d="m 10338.6,18370.4 c -0.3,238.4 141.5,449.8 326.5,504.5 179,52.9 394.3,-42.4 520.8,-231.5 10.7,-253 -132,-488.5 -331.7,-527.1 -287.2,-55.4 -515.6,252.7 -515.6,254.1"
         style="fill:#ffffff;fill-opacity:1;fill-rule:nonzero;stroke:none"
         id="path176" /><path
         d="m 11098.9,18495.6 c 42.6,-161.7 -42.1,-324.2 -189.2,-362.9 -147,-38.7 -300.7,61.1 -343.3,222.9 -42.5,161.7 42.2,324.2 189.2,362.9 147.1,38.7 300.8,-61.1 343.3,-222.9"
         style="fill:#34334b;fill-opacity:1;fill-rule:nonzero;stroke:none"
         id="path178" /><path
         d="m 11196.9,18627.8 c -97.7,136.8 -255.4,217 -410.3,215.6 -156,-1.3 -295.3,-92.2 -376.4,-231.4 -45.1,-77.4 -64.7,-155.6 -66,-249.2 -8.9,5.8 -23.5,43.1 -23.4,53.2 2.3,166.5 83.2,322.2 207.3,412.6 127.8,93.1 294,102.8 440.8,37.2 82.1,-36.7 155.9,-95.9 210.8,-172.7 5.2,-7.2 6.6,-23.9 8.9,-32.6 2,-7.6 4,-15.3 6,-23.1 0.6,-2.4 0.9,-7.7 2.3,-9.6"
         style="fill:#34334b;fill-opacity:1;fill-rule:nonzero;stroke:none"
         id="path180" /><path
         d="m 14009.3,20626.8 c -142.6,309.6 -324.6,640 -559.3,901.9 -570.3,482.8 -1478.7,712.4 -2196.7,502.5 -510.1,-149.2 -957.6,-489.9 -1253.1,-930.7 -225.45,-119 -366.19,-375.1 -401.79,-631.7 -39.57,-285.2 27.94,-573.6 102.23,-851.9 143.25,-536.4 478.36,-1464.1 478.36,-1464.1 0,0 100,-78.9 130.2,-52.7 -21.5,76.8 -45.3,153 -73.3,228.1 -177.6,516.5 -360.29,1273.5 65.3,1660.8 44.7,48.7 99.4,87.2 159.5,108.8 98.1,-100.9 146.9,-248.5 126.4,-388 -21.9,-149.6 -122.8,-285.3 -259.8,-349.3 253,35.8 539.9,93.1 670.1,312.9 109.8,185.4 66.1,418.5 43.2,632.7 -18.3,171.5 -8.8,368.9 88.1,501.2 184.5,56.2 396.8,105.9 555.7,-1.7 154.5,-104.6 190.7,-312.3 283.3,-474.3 98.8,-172.7 273.9,-299.9 468.7,-340.3 195.2,-40.6 407,6.7 566.4,126.3 -120.2,93.6 -202.9,235.3 -222,386.7 40.6,-80.9 135.5,-118.7 224.9,-132.8 89.4,-14.1 182.5,-11.8 267.2,-43.7 171.9,-64.6 264.5,-251.3 309.6,-429.2 45.2,-178 61.3,-367.8 153.3,-526.7 51.8,-89.4 139.2,-165.4 235,-200 56.2,-20.2 205.8,-79.1 262.2,-65.2 -134.6,511.6 -269.2,1023.2 -403.8,1534.8 57.9,-18.3 120,-23.6 180.1,-14.4"
         style="fill:#282735;fill-opacity:1;fill-rule:nonzero;stroke:none"
         id="path182" /><path
         d="m 11920.6,19272.8 c 164.9,153.2 398.3,225 621.1,199 62.2,-7.2 123.4,-22.3 181.8,-44.9 -1,0.4 -7.2,47.7 -6.3,41.9 -5.5,33.6 -11.3,67.2 -17.1,100.8 -5.9,33.5 -479.5,203.6 -676.9,97 -55.1,-29.8 -106.3,-66.4 -152.2,-109.1 -2.2,-2 6.9,-46 6.2,-41.8 5.5,-33.7 11.3,-67.2 17.2,-100.8 5.8,-33.5 11.7,-67.1 17.9,-100.6 1.4,-7.4 2.8,-14.8 4.2,-22.2 1,-6.5 2.4,-13 4.1,-19.3"
         style="fill:#282735;fill-opacity:1;fill-rule:nonzero;stroke:none"
         id="path184" /><path
         d="m 11007.6,19032.6 c -217.2,52.7 -453.5,0.9 -632.9,-130.9 -50.1,-36.8 -95.4,-79.8 -134.7,-128.1 0.6,0.8 -17.2,45 -15.2,39.5 -11.7,32 -23.2,64.1 -34.6,96.2 -11.3,32.1 313.7,412.3 536.1,416.1 62.1,1 124.2,-5.8 184.6,-20.4 2.9,-0.7 16.6,-43.5 15.1,-39.6 11.8,-32 23.2,-64 34.6,-96.1 11.4,-32.1 22.8,-64.2 33.8,-96.5 2.5,-7.1 4.9,-14.2 7.3,-21.4 2.3,-6.1 4.3,-12.4 5.9,-18.8"
         style="fill:#282735;fill-opacity:1;fill-rule:nonzero;stroke:none"
         id="path186" /><path
         d="m 13361.4,18974.7 c 34.3,210.9 169.5,403.1 356.4,506.7 97.9,54.2 219.6,84 321.1,37 90.4,-41.8 146.2,-137.1 168.3,-234.3 39.4,-173.6 -14.5,-359.8 -117.5,-505.1 -103,-145.2 -435.7,-374 -592.9,-457.6 l -135.4,653.3"
         style="fill:#f8a6a5;fill-opacity:1;fill-rule:nonzero;stroke:none"
         id="path188" /><path
         d="m 14027.4,19079.9 c -8.7,4.8 -12.2,17.4 -15,33.6 -2.6,16.3 -6.3,37.2 -13.3,60 -3.4,11.5 -8.5,23.5 -14.1,35.6 -6.5,12 -13.1,24.4 -22.2,35.6 -17.3,23 -40.5,41.3 -65.7,50.9 -25.5,8.7 -55.1,9.5 -83.2,2.9 -14.1,-2.9 -27.1,-8.2 -39.7,-13.2 -12.1,-5.7 -23.7,-11.7 -33.6,-18.4 -20,-13 -36.2,-26.8 -48.6,-37.6 -12.6,-10.7 -23.3,-18.1 -33,-16.2 -9.3,1.7 -17,13.2 -18.4,34.8 -1.6,21.5 5.5,52.7 26.1,85.4 20.3,32.7 55.1,65.6 103.3,87 24.2,10.1 51.4,18.6 81.4,20.1 29.9,1.9 62.1,-1.6 93.4,-12.6 31.2,-11.6 58.2,-29.5 80,-50 22.1,-20.5 37.6,-44.3 49.7,-67.6 23.4,-47.2 29.1,-94.7 23.9,-132.9 -5.2,-38.3 -19.6,-66.8 -34.6,-82.3 -14.9,-15.7 -28.2,-19.7 -36.4,-15.1"
         style="fill:#f57588;fill-opacity:1;fill-rule:nonzero;stroke:none"
         id="path190" /><path
         d="m 12712.5,17928 c -22.6,14.6 -45.3,29.1 -67.9,43.7 -19.9,12.7 -55.4,4 -74.8,-5.7 -15.5,-7.7 -32.8,-24.1 -12.6,-37.1 13.2,-8.5 26.3,-16.9 39.4,-25.4 -190.1,-87.4 -380.3,-174.8 -570.5,-262.2 -50.5,-23.2 -100.9,-46.4 -151.4,-69.5 -23.3,-10.7 -46.6,-21.3 -70.1,-31.4 -25.8,-11.2 -38.3,-16.5 -63.9,-25.9 -23.9,-8.9 -48,-17 -72.5,-23.9 -1.7,-0.5 -8.6,-2.3 -9.5,-2.6 -5.3,-1.3 -10.6,-2.6 -15.9,-3.8 -13.2,-3 -26.5,-5.6 -39.9,-7.7 -1.8,-0.3 -9.4,-1.3 -9.9,-1.4 -5.4,-0.6 -10.8,-1.2 -16.2,-1.7 -10.4,-0.9 -20.9,-1.4 -31.4,-1.7 -1.2,0 -5.6,0 -7.6,0.1 -5.2,0.1 -10.4,0.3 -15.6,0.6 -10.8,0.7 -21.6,1.7 -32.3,3.2 h -0.4 c -3.6,0.6 -7.3,1.3 -10.9,1.9 -5.1,1 -10.2,2.1 -15.2,3.2 -11.6,2.6 -23,5.7 -34.2,9.3 -16.5,5.3 -38.9,15.1 -57,25.2 -39.6,21.9 -72.7,52.9 -97.4,90.8 -4.6,7.1 -20.5,9.3 -27.4,9.8 -13.3,1 -29.1,-1.2 -41.6,-5.7 -14.1,-5 -43.9,-18.2 -31.4,-37.4 49,-75.3 132.1,-121 218.1,-140.9 105.1,-24.4 213.3,-11.4 316,18 107.1,30.8 207.9,81 308.8,127.3 107.4,49.4 214.8,98.8 322.2,148.1 120.1,55.2 240.3,110.4 360.4,165.7 15.6,7.1 32.6,24.3 12.6,37.1"
         style="fill:#ba4443;fill-opacity:1;fill-rule:nonzero;stroke:none"
         id="path192" /><path
         d="m 15679.3,8097.8 c -99.9,-85.1 -215.6,-149.9 -338.4,-186.9 -292.6,-88.3 -613.2,-30.7 -880.6,125.3 -1519.8,-696.6 -3311.8,-703.9 -4833.66,-9.6 -202.71,-120.3 -446.11,-164.9 -677.11,-129.4 -301.82,46.4 -579.96,222.7 -780.56,466.4 -138.95,168.7 -245.69,381.2 -240.32,605.2 5.38,224 148.83,452.5 356.73,492.3 0,0 119.36,22.8 270.01,51.6 2354.31,0.1 4708.51,0.1 7062.71,0.1 0,0 2,0 6.4,0 259.8,-149.3 422.8,-483.2 388.9,-800.1 -26,-242.3 -154.4,-461.6 -334.1,-614.9"
         style="fill:#c53949;fill-opacity:1;fill-rule:nonzero;stroke:none"
         id="path194" /><path
         d="m 15624.5,9512.8 c -4.4,0 -6.4,0 -6.4,0 -2354.2,0 -4708.4,0 -7062.7,-0.1 -150.66,-28.8 -270.01,-51.6 -270.01,-51.6 -207.91,-39.8 -351.36,-268.3 -356.74,-492.3 -5.37,-224 101.37,-436.5 240.32,-605.2 200.6,-243.7 478.74,-420 780.56,-466.4 62.52,-9.6 125.94,-13.2 189.24,-11.1 -333.89,106.9 -698.45,303.4 -842.92,648.4 -124.07,296.3 -61.67,673.3 587.79,673.3 2580.56,71.9 3887.56,7.2 6337.06,7.2 333.4,0 483.6,-67.9 587.7,-209.8 189.3,-258.2 -63.1,-817.9 -453.6,-891.1 -439.3,-73.2 -553.4,-36.8 -870.2,280 -110.4,-311.6 -630.9,-517.8 -916.9,-591 -904.6,-214.6 -1818,-246.1 -2707.7,-175.7 1202.7,-244.2 2475.9,-106.5 3600.3,408.8 267.4,-156 588.1,-213.6 880.6,-125.3 122.8,37 238.5,101.8 338.4,187 179.7,153.2 308.1,372.5 334.1,614.8 33.9,316.9 -129.1,650.8 -388.9,800.1"
         style="fill:#902d36;fill-opacity:1;fill-rule:nonzero;stroke:none"
         id="path196" /><path
         d="m 18606,11698.8 c -163.8,522.5 -929.7,2078.4 -1252.7,2975.9 -136.8,380.1 -293.6,786.3 -630.5,1009.2 -560.5,370.7 -1508.7,-0.2 -1444.6,-809.6 389.7,-1074.3 1294.1,-3001.8 1452.3,-3506.5 158.1,-504.6 2039.2,-191.5 1875.5,331"
         style="fill:#282735;fill-opacity:1;fill-rule:nonzero;stroke:none"
         id="path198" /><path
         d="m 14963,10890.3 c 416.3,-68.9 450.4,-409.2 333.6,-665.9 -116.8,-256.6 -537.8,-436.7 -850.8,9.5 -117.2,167.1 -293.1,579.5 -410.1,721.7 -117,142.2 466.4,11 927.3,-65.3"
         style="fill:#f8a6a5;fill-opacity:1;fill-rule:nonzero;stroke:none"
         id="path200" /><path
         d="m 14502.1,10966.6 c 0,0 -586.8,78.7 -688.3,69.2 -101.6,-9.4 -727.7,-527.2 -885.6,-647.2 -157.9,-119.9 -49.7,-366 161,-212.2 210.6,153.9 735.8,499.5 735.8,499.5 0,0 396.3,-122.6 497.9,-152.7 101.5,-30.1 373.6,326.3 179.2,443.4"
         style="fill:#f8a6a5;fill-opacity:1;fill-rule:nonzero;stroke:none"
         id="path202" /><path
         d="m 14531.7,10757.6 -694,-167.6 c 0,0 -551.5,-367.6 -709.9,-487 -158.5,-119.4 -67.4,-339.7 128.5,-209.5 196,130.1 644.2,343.2 644.2,343.2 0,0 681.1,90.3 745.9,73.3 64.8,-17 -114.7,447.6 -114.7,447.6"
         style="fill:#f8a6a5;fill-opacity:1;fill-rule:nonzero;stroke:none"
         id="path204" /><path
         d="m 14835.8,10414.4 -584.4,-6.4 c 0,0 -540.6,-262.2 -695.7,-348.5 -155.2,-86.2 -62.4,-266.2 129.7,-173.4 192.1,92.7 632.5,237.8 632.5,237.8 0,0 552.3,-11.4 616.6,-28.5 64.2,-17 -98.7,319 -98.7,319"
         style="fill:#f8a6a5;fill-opacity:1;fill-rule:nonzero;stroke:none"
         id="path206" /><path
         d="m 14997.8,10322.5 -505,-52.4 c 0,0 -438,-271 -562.5,-358.4 -124.4,-87.3 -23.6,-236.3 132.1,-140.3 155.7,96 520.3,257.2 520.3,257.2 0,0 479.4,34.3 536.9,24.7 57.6,-9.7 -121.8,269.2 -121.8,269.2"
         style="fill:#f8a6a5;fill-opacity:1;fill-rule:nonzero;stroke:none"
         id="path208" /><path
         d="m 14800.1,9819.4 c 1052.9,-9.9 1741.2,20.9 2794.1,10.7 466.4,29.2 941.6,183.8 1117,581.8 165.9,376.6 64.3,998.3 -105.2,1286.9 -169.6,288.6 -1540,-119 -1540,-119 -1057.4,-286.3 -2485.7,-577.8 -2485.7,-577.8 l 219.8,-1182.6"
         style="fill:#282735;fill-opacity:1;fill-rule:nonzero;stroke:none"
         id="path210" /><path
         d="m 16521.3,11348.3 c 128.9,25.8 206.2,-148.7 283.5,-234.6 17.2,-17.2 43,-25.8 51.6,-17.2 68.7,94.5 -43,249.2 34.4,274.9 163.2,51.6 506.8,-176.4 506.8,-137.4 0,38.9 -378,231.9 -575.6,360.8 -128.2,89.7 -222.3,205 -306.8,326.7 73.5,-175.5 134.2,-325.7 176,-439.7 -699.4,-177.3 -1463.3,-343.4 -1852,-425.7 0,0 1118.6,187.5 1682.1,292.2"
         style="fill:#1c1b22;fill-opacity:1;fill-rule:nonzero;stroke:none"
         id="path212" /><path
         d="m 18606,11698.8 c -163.8,522.5 -929.7,2078.4 -1252.7,2975.9 -110.2,306 -233.3,629 -453,859.6 11.8,-21.1 23,-42.7 33.4,-64.8 94.5,-197.6 132.6,-280.6 232,-610 99.3,-329.3 914.7,-2018.9 1215.4,-3075.7 120.2,-429.5 312.2,-982.4 80.3,-1403.3 -128.9,-240.6 -382.4,-349.1 -788.2,-418.7 -198.5,-34 -507.4,-82.9 -698.1,-129.9 194.9,0.7 399,0.4 619.1,-1.8 466.4,29.2 941.6,183.8 1117,581.8 165.9,376.6 64.3,998.3 -105.2,1286.9"
         style="fill:#373653;fill-opacity:1;fill-rule:nonzero;stroke:none"
         id="path214" /><path
         d="m 15482,9611.8 -1219.7,147.6 H 12580.7 V 9611.8 H 15482"
         style="fill:#d5d9e4;fill-opacity:1;fill-rule:nonzero;stroke:none"
         id="path216" /><path
         d="m 7652.99,13953.5 h 5358.41 c 152.2,0 300.6,-124.4 329.9,-276.6 l 729,-3788.6 c 29.2,-152.1 -71.3,-276.5 -223.5,-276.5 H 8488.37 c -152.2,0 -300.65,124.4 -329.92,276.5 l -728.96,3788.6 c -29.26,152.2 71.32,276.6 223.5,276.6"
         style="fill:#ffffff;fill-opacity:1;fill-rule:nonzero;stroke:none"
         id="path218" /><path
         d="m 7503.04,13953.5 h 5358.36 c 152.2,0 300.7,-124.4 330,-276.6 l 728.9,-3788.6 c 29.3,-152.1 -71.3,-276.5 -223.5,-276.5 H 8338.41 c -152.19,0 -300.66,124.4 -329.92,276.5 l -728.96,3788.6 c -29.26,152.2 71.32,276.6 223.51,276.6"
         style="fill:#f4f4f7;fill-opacity:1;fill-rule:nonzero;stroke:none"
         id="path220" /><path
         d="m 7503.04,13953.5 h 5358.36 c 152.2,0 300.7,-124.4 330,-276.6 l 728.9,-3788.6 c 29.3,-152.1 -71.3,-276.5 -223.5,-276.5 H 8338.41 c -152.19,0 -300.66,124.4 -329.92,276.5 l -728.96,3788.6 c -29.26,152.2 71.32,276.6 223.51,276.6"
         style="fill:#c9ccdb;fill-opacity:1;fill-rule:nonzero;stroke:none"
         id="path222" /><path
         d="m 8795.91,10349.6 -1295.23,2575.8 581.18,-3020.6 c 22.77,-118.4 141.46,-218.4 259.15,-218.4 h 5358.39 c 25.7,0 49.5,5 70.2,14.4 -1562.5,110 -4973.69,648.8 -4973.69,648.8"
         style="fill:#bec1d0;fill-opacity:1;fill-rule:nonzero;stroke:none"
         id="path224" /><path
         d="m 13439.4,11989.9 c -788.3,748.5 -1664.7,1376.1 -2609.3,1889 h 2028.7 c 117.7,0 236.4,-100 259.2,-218.5 l 321.4,-1670.5"
         style="fill:#e1e5ee;fill-opacity:1;fill-rule:nonzero;stroke:none"
         id="path226" /><path
         d="M 15452,9397.7 H 8017.53 c -58.93,0 -100.41,48.1 -92.17,107 8.23,58.9 63.18,107.1 122.1,107.1 H 15482 c 58.9,0 100.4,-48.2 92.1,-107.1 -8.2,-58.9 -63.2,-107 -122.1,-107"
         style="fill:#c9ccdb;fill-opacity:1;fill-rule:nonzero;stroke:none"
         id="path228" /><path
         d="M 13865,9397.7 H 8017.53 c -58.93,0 -100.41,48.1 -92.17,107 8.23,58.9 63.18,107.1 122.1,107.1 H 13895 c 58.9,0 100.4,-48.2 92.1,-107.1 -8.2,-58.9 -63.1,-107 -122.1,-107"
         style="fill:#aeb5ce;fill-opacity:1;fill-rule:nonzero;stroke:none"
         id="path230" /><path
         d="m 17124.4,5091.2 v 3821.1 c 0,452.5 370.2,822.7 822.7,822.7 h 992.5 c 452.5,0 822.7,-370.2 822.7,-822.7 V 5091.2 c 0,-452.5 -370.2,-822.7 -822.7,-822.7 h -992.5 c -452.5,0 -822.7,370.2 -822.7,822.7"
         style="fill:#b87d1c;fill-opacity:1;fill-rule:nonzero;stroke:none"
         id="path232" /><path
         d="m 16311.8,5091.2 v 3821.1 c 0,452.5 370.2,822.7 822.7,822.7 h 992.6 c 452.4,0 822.6,-370.2 822.6,-822.7 V 5091.2 c 0,-452.5 -370.2,-822.7 -822.6,-822.7 h -992.6 c -452.5,0 -822.7,370.2 -822.7,822.7"
         style="fill:#f9a726;fill-opacity:1;fill-rule:nonzero;stroke:none"
         id="path234" /></g></g></svg>
